G75*
%MOIN*%
%OFA0B0*%
%FSLAX25Y25*%
%IPPOS*%
%LPD*%
%AMOC8*
5,1,8,0,0,1.08239X$1,22.5*
%
%ADD10C,0.01600*%
%ADD11C,0.00800*%
%ADD12C,0.01200*%
%ADD13C,0.00400*%
%ADD14R,0.05709X0.02953*%
%ADD15C,0.00600*%
%ADD16C,0.00500*%
%ADD17R,0.02400X0.02400*%
%ADD18R,0.02559X0.05512*%
%ADD19R,0.05512X0.02559*%
%ADD20R,0.02000X0.02000*%
%ADD21R,0.06000X0.04000*%
D10*
X0079300Y0015550D02*
X0108050Y0015550D01*
X0108050Y0028050D01*
X0079300Y0028050D01*
X0079300Y0015550D01*
D11*
X0082196Y0017992D02*
X0082196Y0020094D01*
X0082897Y0020795D01*
X0084298Y0020795D01*
X0084999Y0020094D01*
X0084999Y0017992D01*
X0086400Y0017992D02*
X0082196Y0017992D01*
X0084999Y0019393D02*
X0086400Y0020795D01*
X0086400Y0022596D02*
X0086400Y0025398D01*
X0086400Y0023997D02*
X0082196Y0023997D01*
X0083598Y0022596D01*
X0088446Y0023297D02*
X0089147Y0022596D01*
X0088446Y0023297D02*
X0088446Y0024698D01*
X0089147Y0025398D01*
X0089848Y0025398D01*
X0092650Y0022596D01*
X0092650Y0025398D01*
X0094696Y0024698D02*
X0094696Y0023297D01*
X0095397Y0022596D01*
X0095397Y0020795D02*
X0096798Y0020795D01*
X0097499Y0020094D01*
X0097499Y0017992D01*
X0098900Y0017992D02*
X0094696Y0017992D01*
X0094696Y0020094D01*
X0095397Y0020795D01*
X0098199Y0022596D02*
X0098900Y0023297D01*
X0098900Y0024698D01*
X0098199Y0025398D01*
X0097499Y0025398D01*
X0096798Y0024698D01*
X0096798Y0023997D01*
X0096798Y0024698D02*
X0096098Y0025398D01*
X0095397Y0025398D01*
X0094696Y0024698D01*
X0092650Y0020795D02*
X0091249Y0019393D01*
X0091249Y0020094D02*
X0091249Y0017992D01*
X0092650Y0017992D02*
X0088446Y0017992D01*
X0088446Y0020094D01*
X0089147Y0020795D01*
X0090548Y0020795D01*
X0091249Y0020094D01*
X0097499Y0019393D02*
X0098900Y0020795D01*
X0100946Y0020094D02*
X0101647Y0020795D01*
X0103048Y0020795D01*
X0103749Y0020094D01*
X0103749Y0017992D01*
X0105150Y0017992D02*
X0100946Y0017992D01*
X0100946Y0020094D01*
X0103749Y0019393D02*
X0105150Y0020795D01*
X0103048Y0022596D02*
X0103048Y0025398D01*
X0100946Y0024698D02*
X0103048Y0022596D01*
X0105150Y0024698D02*
X0100946Y0024698D01*
X0112992Y0020154D02*
X0115094Y0020154D01*
X0115795Y0019453D01*
X0115795Y0018052D01*
X0115094Y0017351D01*
X0112992Y0017351D01*
X0112992Y0015950D02*
X0112992Y0020154D01*
X0117596Y0018052D02*
X0119698Y0018052D01*
X0120398Y0017351D01*
X0120398Y0016651D01*
X0119698Y0015950D01*
X0118297Y0015950D01*
X0117596Y0016651D01*
X0117596Y0018052D01*
X0118997Y0019453D01*
X0120398Y0020154D01*
X0125492Y0018203D02*
X0125492Y0015401D01*
X0126193Y0014700D01*
X0127594Y0014700D01*
X0128295Y0015401D01*
X0130096Y0016802D02*
X0132898Y0016802D01*
X0132198Y0014700D02*
X0132198Y0018904D01*
X0130096Y0016802D01*
X0128295Y0018203D02*
X0127594Y0018904D01*
X0126193Y0018904D01*
X0125492Y0018203D01*
X0115795Y0015950D02*
X0114393Y0017351D01*
X0088710Y0031901D02*
X0088010Y0031200D01*
X0086608Y0031200D01*
X0085908Y0031901D01*
X0084106Y0031901D02*
X0084106Y0032601D01*
X0083406Y0033302D01*
X0082705Y0033302D01*
X0083406Y0033302D02*
X0084106Y0034002D01*
X0084106Y0034703D01*
X0083406Y0035404D01*
X0082005Y0035404D01*
X0081304Y0034703D01*
X0079502Y0035404D02*
X0079502Y0031901D01*
X0078802Y0031200D01*
X0077401Y0031200D01*
X0076700Y0031901D01*
X0076700Y0035404D01*
X0081304Y0031901D02*
X0082005Y0031200D01*
X0083406Y0031200D01*
X0084106Y0031901D01*
X0085908Y0033302D02*
X0087309Y0034002D01*
X0088010Y0034002D01*
X0088710Y0033302D01*
X0088710Y0031901D01*
X0085908Y0033302D02*
X0085908Y0035404D01*
X0088710Y0035404D01*
X0072210Y0028203D02*
X0072210Y0027502D01*
X0069408Y0024700D01*
X0072210Y0024700D01*
X0066906Y0025401D02*
X0066205Y0024700D01*
X0065505Y0024700D01*
X0064804Y0025401D01*
X0063002Y0025401D02*
X0063002Y0026101D01*
X0062302Y0026802D01*
X0060901Y0026802D01*
X0060200Y0027502D01*
X0060200Y0028203D01*
X0060901Y0028904D01*
X0062302Y0028904D01*
X0063002Y0028203D01*
X0066205Y0028904D02*
X0067606Y0028904D01*
X0066906Y0028904D02*
X0066906Y0025401D01*
X0063002Y0025401D02*
X0062302Y0024700D01*
X0060901Y0024700D01*
X0060200Y0025401D01*
X0053900Y0024545D02*
X0052499Y0023143D01*
X0052499Y0023844D02*
X0052499Y0021742D01*
X0053900Y0021742D02*
X0049696Y0021742D01*
X0049696Y0023844D01*
X0050397Y0024545D01*
X0051798Y0024545D01*
X0052499Y0023844D01*
X0053199Y0026346D02*
X0053900Y0027047D01*
X0053900Y0028448D01*
X0053199Y0029148D01*
X0050397Y0029148D01*
X0049696Y0028448D01*
X0049696Y0027047D01*
X0050397Y0026346D01*
X0051098Y0026346D01*
X0051798Y0027047D01*
X0051798Y0029148D01*
X0069408Y0028203D02*
X0070108Y0028904D01*
X0071510Y0028904D01*
X0072210Y0028203D01*
X0053900Y0039638D02*
X0049696Y0039638D01*
X0049696Y0041740D01*
X0050397Y0042441D01*
X0051798Y0042441D01*
X0052499Y0041740D01*
X0052499Y0039638D01*
X0052499Y0041039D02*
X0053900Y0042441D01*
X0053900Y0044242D02*
X0053900Y0047045D01*
X0053900Y0045643D02*
X0049696Y0045643D01*
X0051098Y0044242D01*
X0050397Y0048846D02*
X0049696Y0049547D01*
X0049696Y0050948D01*
X0050397Y0051648D01*
X0053199Y0048846D01*
X0053900Y0049547D01*
X0053900Y0050948D01*
X0053199Y0051648D01*
X0050397Y0051648D01*
X0050397Y0048846D02*
X0053199Y0048846D01*
X0075696Y0049502D02*
X0079199Y0049502D01*
X0079900Y0048802D01*
X0079900Y0047401D01*
X0079199Y0046700D01*
X0075696Y0046700D01*
X0076397Y0051304D02*
X0075696Y0052005D01*
X0075696Y0053406D01*
X0076397Y0054106D01*
X0077098Y0054106D01*
X0077798Y0053406D01*
X0078499Y0054106D01*
X0079199Y0054106D01*
X0079900Y0053406D01*
X0079900Y0052005D01*
X0079199Y0051304D01*
X0077798Y0052705D02*
X0077798Y0053406D01*
X0077798Y0055908D02*
X0077798Y0058710D01*
X0075696Y0058010D02*
X0077798Y0055908D01*
X0079900Y0058010D02*
X0075696Y0058010D01*
X0100492Y0065950D02*
X0100492Y0070154D01*
X0102594Y0070154D01*
X0103295Y0069453D01*
X0103295Y0068052D01*
X0102594Y0067351D01*
X0100492Y0067351D01*
X0101893Y0067351D02*
X0103295Y0065950D01*
X0105096Y0065950D02*
X0105096Y0066651D01*
X0107898Y0069453D01*
X0107898Y0070154D01*
X0105096Y0070154D01*
X0105797Y0073450D02*
X0105096Y0074151D01*
X0105797Y0073450D02*
X0107198Y0073450D01*
X0107898Y0074151D01*
X0107898Y0075552D01*
X0107198Y0076252D01*
X0106497Y0076252D01*
X0105096Y0075552D01*
X0105096Y0077654D01*
X0107898Y0077654D01*
X0103295Y0076953D02*
X0103295Y0075552D01*
X0102594Y0074851D01*
X0100492Y0074851D01*
X0101893Y0074851D02*
X0103295Y0073450D01*
X0100492Y0073450D02*
X0100492Y0077654D01*
X0102594Y0077654D01*
X0103295Y0076953D01*
X0125950Y0080401D02*
X0126651Y0079700D01*
X0128052Y0079700D01*
X0128752Y0080401D01*
X0130554Y0080401D02*
X0131255Y0079700D01*
X0132656Y0079700D01*
X0133356Y0080401D01*
X0133356Y0081101D01*
X0132656Y0081802D01*
X0131955Y0081802D01*
X0132656Y0081802D02*
X0133356Y0082502D01*
X0133356Y0083203D01*
X0132656Y0083904D01*
X0131255Y0083904D01*
X0130554Y0083203D01*
X0128752Y0083203D02*
X0128052Y0083904D01*
X0126651Y0083904D01*
X0125950Y0083203D01*
X0125950Y0080401D01*
X0152196Y0060552D02*
X0152897Y0061252D01*
X0154298Y0061252D01*
X0154999Y0060552D01*
X0154999Y0058450D01*
X0156400Y0058450D02*
X0152196Y0058450D01*
X0152196Y0060552D01*
X0154999Y0059851D02*
X0156400Y0061252D01*
X0156150Y0053106D02*
X0156150Y0050304D01*
X0153348Y0053106D01*
X0152647Y0053106D01*
X0151946Y0052406D01*
X0151946Y0051005D01*
X0152647Y0050304D01*
X0151946Y0048502D02*
X0156150Y0045700D01*
X0156150Y0048502D02*
X0151946Y0045700D01*
X0156400Y0040002D02*
X0156400Y0037200D01*
X0152196Y0037200D01*
X0125398Y0038450D02*
X0122596Y0038450D01*
X0125398Y0041252D01*
X0125398Y0041953D01*
X0124698Y0042654D01*
X0123297Y0042654D01*
X0122596Y0041953D01*
X0120795Y0041953D02*
X0120094Y0042654D01*
X0118693Y0042654D01*
X0117992Y0041953D01*
X0117992Y0039151D01*
X0118693Y0038450D01*
X0120094Y0038450D01*
X0120795Y0039151D01*
X0115398Y0039453D02*
X0115398Y0038752D01*
X0114698Y0038052D01*
X0113297Y0038052D01*
X0112596Y0038752D01*
X0112596Y0039453D01*
X0113297Y0040154D01*
X0114698Y0040154D01*
X0115398Y0039453D01*
X0114698Y0038052D02*
X0115398Y0037351D01*
X0115398Y0036651D01*
X0114698Y0035950D01*
X0113297Y0035950D01*
X0112596Y0036651D01*
X0112596Y0037351D01*
X0113297Y0038052D01*
X0110795Y0038052D02*
X0110094Y0037351D01*
X0107992Y0037351D01*
X0109393Y0037351D02*
X0110795Y0035950D01*
X0110795Y0038052D02*
X0110795Y0039453D01*
X0110094Y0040154D01*
X0107992Y0040154D01*
X0107992Y0035950D01*
X0118693Y0055950D02*
X0120094Y0055950D01*
X0120795Y0056651D01*
X0122596Y0055950D02*
X0125398Y0055950D01*
X0123997Y0055950D02*
X0123997Y0060154D01*
X0122596Y0058752D01*
X0120795Y0059453D02*
X0120094Y0060154D01*
X0118693Y0060154D01*
X0117992Y0059453D01*
X0117992Y0056651D01*
X0118693Y0055950D01*
X0069898Y0075950D02*
X0067096Y0075950D01*
X0068497Y0075950D02*
X0068497Y0080154D01*
X0067096Y0078752D01*
X0065295Y0080154D02*
X0063893Y0080154D01*
X0064594Y0080154D02*
X0064594Y0076651D01*
X0063893Y0075950D01*
X0063193Y0075950D01*
X0062492Y0076651D01*
X0060691Y0076651D02*
X0060691Y0077351D01*
X0059990Y0078052D01*
X0058589Y0078052D01*
X0057888Y0078752D01*
X0057888Y0079453D01*
X0058589Y0080154D01*
X0059990Y0080154D01*
X0060691Y0079453D01*
X0060691Y0076651D02*
X0059990Y0075950D01*
X0058589Y0075950D01*
X0057888Y0076651D01*
X0021150Y0053356D02*
X0021150Y0050554D01*
X0021150Y0048752D02*
X0016946Y0045950D01*
X0016946Y0048752D02*
X0021150Y0045950D01*
X0018348Y0050554D02*
X0016946Y0051955D01*
X0021150Y0051955D01*
D12*
X0074300Y0060550D02*
X0074300Y0028050D01*
X0079300Y0028050D01*
X0085550Y0056800D02*
X0089300Y0060550D01*
X0085550Y0064300D01*
X0089300Y0060550D02*
X0074300Y0060550D01*
D13*
X0071600Y0063250D02*
X0070266Y0064584D01*
X0069932Y0064584D01*
X0069598Y0064251D01*
X0069598Y0063584D01*
X0069932Y0063250D01*
X0071600Y0063250D02*
X0071600Y0064584D01*
X0071266Y0069500D02*
X0071600Y0069834D01*
X0071600Y0070501D01*
X0071266Y0070834D01*
X0070933Y0070834D01*
X0070599Y0070501D01*
X0070599Y0070167D01*
X0070599Y0070501D02*
X0070266Y0070834D01*
X0069932Y0070834D01*
X0069598Y0070501D01*
X0069598Y0069834D01*
X0069932Y0069500D01*
X0071600Y0053334D02*
X0071600Y0052000D01*
X0071600Y0052667D02*
X0069598Y0052667D01*
X0070266Y0052000D01*
X0070266Y0042084D02*
X0069932Y0042084D01*
X0069598Y0041751D01*
X0069598Y0041084D01*
X0069932Y0040750D01*
X0070266Y0042084D02*
X0071600Y0040750D01*
X0071600Y0042084D01*
X0071266Y0035834D02*
X0071600Y0035501D01*
X0071600Y0034834D01*
X0071266Y0034500D01*
X0070599Y0035167D02*
X0070599Y0035501D01*
X0070933Y0035834D01*
X0071266Y0035834D01*
X0070599Y0035501D02*
X0070266Y0035834D01*
X0069932Y0035834D01*
X0069598Y0035501D01*
X0069598Y0034834D01*
X0069932Y0034500D01*
X0126702Y0040300D02*
X0126702Y0043202D01*
X0131898Y0043300D02*
X0131898Y0040300D01*
X0131898Y0028300D02*
X0131898Y0025398D01*
X0126702Y0025300D02*
X0126702Y0028300D01*
X0126702Y0055300D02*
X0126702Y0058202D01*
X0131898Y0058300D02*
X0131898Y0055300D01*
X0131898Y0070300D02*
X0131898Y0073300D01*
X0126702Y0073202D02*
X0126702Y0070300D01*
D14*
X0129305Y0068923D03*
X0129305Y0074623D03*
X0129305Y0059623D03*
X0129305Y0053923D03*
X0129305Y0044623D03*
X0129305Y0038923D03*
X0129295Y0029677D03*
X0129295Y0023977D03*
D15*
X0026800Y0016800D02*
X0024300Y0019300D01*
X0024300Y0024300D01*
X0026800Y0026800D01*
X0024300Y0029300D01*
X0024300Y0034300D01*
X0026800Y0036800D01*
X0024300Y0039300D01*
X0024300Y0044300D01*
X0026800Y0046800D01*
X0024300Y0049300D01*
X0024300Y0054300D01*
X0026800Y0056800D01*
X0024300Y0059300D01*
X0024300Y0064300D01*
X0026800Y0066800D01*
X0024300Y0069300D01*
X0024300Y0074300D01*
X0026800Y0076800D01*
X0031800Y0076800D01*
X0034300Y0074300D01*
X0034300Y0069300D01*
X0031800Y0066800D01*
X0034300Y0064300D01*
X0034300Y0059300D01*
X0031800Y0056800D01*
X0034300Y0054300D01*
X0034300Y0049300D01*
X0031800Y0046800D01*
X0034300Y0044300D01*
X0034300Y0039300D01*
X0031800Y0036800D01*
X0034300Y0034300D01*
X0034300Y0029300D01*
X0031800Y0026800D01*
X0034300Y0024300D01*
X0034300Y0019300D01*
X0031800Y0016800D01*
X0026800Y0016800D01*
X0041800Y0025186D02*
X0041800Y0028414D01*
X0046800Y0028414D02*
X0046800Y0025186D01*
X0060300Y0033300D02*
X0060300Y0050300D01*
X0060302Y0050360D01*
X0060307Y0050421D01*
X0060316Y0050480D01*
X0060329Y0050539D01*
X0060345Y0050598D01*
X0060365Y0050655D01*
X0060388Y0050710D01*
X0060415Y0050765D01*
X0060444Y0050817D01*
X0060477Y0050868D01*
X0060513Y0050917D01*
X0060551Y0050963D01*
X0060593Y0051007D01*
X0060637Y0051049D01*
X0060683Y0051087D01*
X0060732Y0051123D01*
X0060783Y0051156D01*
X0060835Y0051185D01*
X0060890Y0051212D01*
X0060945Y0051235D01*
X0061002Y0051255D01*
X0061061Y0051271D01*
X0061120Y0051284D01*
X0061179Y0051293D01*
X0061240Y0051298D01*
X0061300Y0051300D01*
X0067300Y0051300D01*
X0067360Y0051298D01*
X0067421Y0051293D01*
X0067480Y0051284D01*
X0067539Y0051271D01*
X0067598Y0051255D01*
X0067655Y0051235D01*
X0067710Y0051212D01*
X0067765Y0051185D01*
X0067817Y0051156D01*
X0067868Y0051123D01*
X0067917Y0051087D01*
X0067963Y0051049D01*
X0068007Y0051007D01*
X0068049Y0050963D01*
X0068087Y0050917D01*
X0068123Y0050868D01*
X0068156Y0050817D01*
X0068185Y0050765D01*
X0068212Y0050710D01*
X0068235Y0050655D01*
X0068255Y0050598D01*
X0068271Y0050539D01*
X0068284Y0050480D01*
X0068293Y0050421D01*
X0068298Y0050360D01*
X0068300Y0050300D01*
X0068300Y0033300D01*
X0068298Y0033240D01*
X0068293Y0033179D01*
X0068284Y0033120D01*
X0068271Y0033061D01*
X0068255Y0033002D01*
X0068235Y0032945D01*
X0068212Y0032890D01*
X0068185Y0032835D01*
X0068156Y0032783D01*
X0068123Y0032732D01*
X0068087Y0032683D01*
X0068049Y0032637D01*
X0068007Y0032593D01*
X0067963Y0032551D01*
X0067917Y0032513D01*
X0067868Y0032477D01*
X0067817Y0032444D01*
X0067765Y0032415D01*
X0067710Y0032388D01*
X0067655Y0032365D01*
X0067598Y0032345D01*
X0067539Y0032329D01*
X0067480Y0032316D01*
X0067421Y0032307D01*
X0067360Y0032302D01*
X0067300Y0032300D01*
X0061300Y0032300D01*
X0061240Y0032302D01*
X0061179Y0032307D01*
X0061120Y0032316D01*
X0061061Y0032329D01*
X0061002Y0032345D01*
X0060945Y0032365D01*
X0060890Y0032388D01*
X0060835Y0032415D01*
X0060783Y0032444D01*
X0060732Y0032477D01*
X0060683Y0032513D01*
X0060637Y0032551D01*
X0060593Y0032593D01*
X0060551Y0032637D01*
X0060513Y0032683D01*
X0060477Y0032732D01*
X0060444Y0032783D01*
X0060415Y0032835D01*
X0060388Y0032890D01*
X0060365Y0032945D01*
X0060345Y0033002D01*
X0060329Y0033061D01*
X0060316Y0033120D01*
X0060307Y0033179D01*
X0060302Y0033240D01*
X0060300Y0033300D01*
X0064300Y0032800D02*
X0064300Y0034800D01*
X0061300Y0041800D02*
X0060300Y0041800D01*
X0067300Y0041800D02*
X0068300Y0041800D01*
X0064300Y0048800D02*
X0064300Y0050800D01*
X0067300Y0054800D02*
X0061300Y0054800D01*
X0061240Y0054802D01*
X0061179Y0054807D01*
X0061120Y0054816D01*
X0061061Y0054829D01*
X0061002Y0054845D01*
X0060945Y0054865D01*
X0060890Y0054888D01*
X0060835Y0054915D01*
X0060783Y0054944D01*
X0060732Y0054977D01*
X0060683Y0055013D01*
X0060637Y0055051D01*
X0060593Y0055093D01*
X0060551Y0055137D01*
X0060513Y0055183D01*
X0060477Y0055232D01*
X0060444Y0055283D01*
X0060415Y0055335D01*
X0060388Y0055390D01*
X0060365Y0055445D01*
X0060345Y0055502D01*
X0060329Y0055561D01*
X0060316Y0055620D01*
X0060307Y0055679D01*
X0060302Y0055740D01*
X0060300Y0055800D01*
X0060300Y0072800D01*
X0060302Y0072860D01*
X0060307Y0072921D01*
X0060316Y0072980D01*
X0060329Y0073039D01*
X0060345Y0073098D01*
X0060365Y0073155D01*
X0060388Y0073210D01*
X0060415Y0073265D01*
X0060444Y0073317D01*
X0060477Y0073368D01*
X0060513Y0073417D01*
X0060551Y0073463D01*
X0060593Y0073507D01*
X0060637Y0073549D01*
X0060683Y0073587D01*
X0060732Y0073623D01*
X0060783Y0073656D01*
X0060835Y0073685D01*
X0060890Y0073712D01*
X0060945Y0073735D01*
X0061002Y0073755D01*
X0061061Y0073771D01*
X0061120Y0073784D01*
X0061179Y0073793D01*
X0061240Y0073798D01*
X0061300Y0073800D01*
X0067300Y0073800D01*
X0067360Y0073798D01*
X0067421Y0073793D01*
X0067480Y0073784D01*
X0067539Y0073771D01*
X0067598Y0073755D01*
X0067655Y0073735D01*
X0067710Y0073712D01*
X0067765Y0073685D01*
X0067817Y0073656D01*
X0067868Y0073623D01*
X0067917Y0073587D01*
X0067963Y0073549D01*
X0068007Y0073507D01*
X0068049Y0073463D01*
X0068087Y0073417D01*
X0068123Y0073368D01*
X0068156Y0073317D01*
X0068185Y0073265D01*
X0068212Y0073210D01*
X0068235Y0073155D01*
X0068255Y0073098D01*
X0068271Y0073039D01*
X0068284Y0072980D01*
X0068293Y0072921D01*
X0068298Y0072860D01*
X0068300Y0072800D01*
X0068300Y0055800D01*
X0068298Y0055740D01*
X0068293Y0055679D01*
X0068284Y0055620D01*
X0068271Y0055561D01*
X0068255Y0055502D01*
X0068235Y0055445D01*
X0068212Y0055390D01*
X0068185Y0055335D01*
X0068156Y0055283D01*
X0068123Y0055232D01*
X0068087Y0055183D01*
X0068049Y0055137D01*
X0068007Y0055093D01*
X0067963Y0055051D01*
X0067917Y0055013D01*
X0067868Y0054977D01*
X0067817Y0054944D01*
X0067765Y0054915D01*
X0067710Y0054888D01*
X0067655Y0054865D01*
X0067598Y0054845D01*
X0067539Y0054829D01*
X0067480Y0054816D01*
X0067421Y0054807D01*
X0067360Y0054802D01*
X0067300Y0054800D01*
X0064300Y0055300D02*
X0064300Y0057300D01*
X0061300Y0064300D02*
X0060300Y0064300D01*
X0067300Y0064300D02*
X0068300Y0064300D01*
X0064300Y0071300D02*
X0064300Y0073300D01*
X0095186Y0063050D02*
X0098414Y0063050D01*
X0098414Y0058050D02*
X0095186Y0058050D01*
X0095186Y0055550D02*
X0098414Y0055550D01*
X0098414Y0050550D02*
X0095186Y0050550D01*
X0095186Y0048050D02*
X0098414Y0048050D01*
X0098414Y0043050D02*
X0095186Y0043050D01*
X0095186Y0040550D02*
X0098414Y0040550D01*
X0098414Y0035550D02*
X0095186Y0035550D01*
X0087300Y0037550D02*
X0086300Y0037550D01*
X0087300Y0037550D02*
X0087300Y0038550D01*
X0081800Y0040550D02*
X0081802Y0040649D01*
X0081808Y0040749D01*
X0081818Y0040848D01*
X0081832Y0040946D01*
X0081849Y0041044D01*
X0081871Y0041141D01*
X0081896Y0041237D01*
X0081925Y0041332D01*
X0081958Y0041426D01*
X0081995Y0041518D01*
X0082035Y0041609D01*
X0082079Y0041698D01*
X0082127Y0041786D01*
X0082178Y0041871D01*
X0082232Y0041954D01*
X0082289Y0042036D01*
X0082350Y0042114D01*
X0082414Y0042191D01*
X0082480Y0042264D01*
X0082550Y0042335D01*
X0082622Y0042403D01*
X0082697Y0042469D01*
X0082775Y0042531D01*
X0082855Y0042590D01*
X0082937Y0042646D01*
X0083021Y0042698D01*
X0083108Y0042747D01*
X0083196Y0042793D01*
X0083286Y0042835D01*
X0083378Y0042874D01*
X0083471Y0042909D01*
X0083565Y0042940D01*
X0083661Y0042967D01*
X0083758Y0042990D01*
X0083855Y0043010D01*
X0083953Y0043026D01*
X0084052Y0043038D01*
X0084151Y0043046D01*
X0084250Y0043050D01*
X0084350Y0043050D01*
X0084449Y0043046D01*
X0084548Y0043038D01*
X0084647Y0043026D01*
X0084745Y0043010D01*
X0084842Y0042990D01*
X0084939Y0042967D01*
X0085035Y0042940D01*
X0085129Y0042909D01*
X0085222Y0042874D01*
X0085314Y0042835D01*
X0085404Y0042793D01*
X0085492Y0042747D01*
X0085579Y0042698D01*
X0085663Y0042646D01*
X0085745Y0042590D01*
X0085825Y0042531D01*
X0085903Y0042469D01*
X0085978Y0042403D01*
X0086050Y0042335D01*
X0086120Y0042264D01*
X0086186Y0042191D01*
X0086250Y0042114D01*
X0086311Y0042036D01*
X0086368Y0041954D01*
X0086422Y0041871D01*
X0086473Y0041786D01*
X0086521Y0041698D01*
X0086565Y0041609D01*
X0086605Y0041518D01*
X0086642Y0041426D01*
X0086675Y0041332D01*
X0086704Y0041237D01*
X0086729Y0041141D01*
X0086751Y0041044D01*
X0086768Y0040946D01*
X0086782Y0040848D01*
X0086792Y0040749D01*
X0086798Y0040649D01*
X0086800Y0040550D01*
X0086798Y0040451D01*
X0086792Y0040351D01*
X0086782Y0040252D01*
X0086768Y0040154D01*
X0086751Y0040056D01*
X0086729Y0039959D01*
X0086704Y0039863D01*
X0086675Y0039768D01*
X0086642Y0039674D01*
X0086605Y0039582D01*
X0086565Y0039491D01*
X0086521Y0039402D01*
X0086473Y0039314D01*
X0086422Y0039229D01*
X0086368Y0039146D01*
X0086311Y0039064D01*
X0086250Y0038986D01*
X0086186Y0038909D01*
X0086120Y0038836D01*
X0086050Y0038765D01*
X0085978Y0038697D01*
X0085903Y0038631D01*
X0085825Y0038569D01*
X0085745Y0038510D01*
X0085663Y0038454D01*
X0085579Y0038402D01*
X0085492Y0038353D01*
X0085404Y0038307D01*
X0085314Y0038265D01*
X0085222Y0038226D01*
X0085129Y0038191D01*
X0085035Y0038160D01*
X0084939Y0038133D01*
X0084842Y0038110D01*
X0084745Y0038090D01*
X0084647Y0038074D01*
X0084548Y0038062D01*
X0084449Y0038054D01*
X0084350Y0038050D01*
X0084250Y0038050D01*
X0084151Y0038054D01*
X0084052Y0038062D01*
X0083953Y0038074D01*
X0083855Y0038090D01*
X0083758Y0038110D01*
X0083661Y0038133D01*
X0083565Y0038160D01*
X0083471Y0038191D01*
X0083378Y0038226D01*
X0083286Y0038265D01*
X0083196Y0038307D01*
X0083108Y0038353D01*
X0083021Y0038402D01*
X0082937Y0038454D01*
X0082855Y0038510D01*
X0082775Y0038569D01*
X0082697Y0038631D01*
X0082622Y0038697D01*
X0082550Y0038765D01*
X0082480Y0038836D01*
X0082414Y0038909D01*
X0082350Y0038986D01*
X0082289Y0039064D01*
X0082232Y0039146D01*
X0082178Y0039229D01*
X0082127Y0039314D01*
X0082079Y0039402D01*
X0082035Y0039491D01*
X0081995Y0039582D01*
X0081958Y0039674D01*
X0081925Y0039768D01*
X0081896Y0039863D01*
X0081871Y0039959D01*
X0081849Y0040056D01*
X0081832Y0040154D01*
X0081818Y0040252D01*
X0081808Y0040351D01*
X0081802Y0040451D01*
X0081800Y0040550D01*
X0081300Y0038550D02*
X0081300Y0037550D01*
X0082300Y0037550D01*
X0081300Y0042550D02*
X0081300Y0043550D01*
X0082300Y0043550D01*
X0082300Y0046300D02*
X0081300Y0046300D01*
X0081300Y0047300D01*
X0081800Y0049300D02*
X0081802Y0049399D01*
X0081808Y0049499D01*
X0081818Y0049598D01*
X0081832Y0049696D01*
X0081849Y0049794D01*
X0081871Y0049891D01*
X0081896Y0049987D01*
X0081925Y0050082D01*
X0081958Y0050176D01*
X0081995Y0050268D01*
X0082035Y0050359D01*
X0082079Y0050448D01*
X0082127Y0050536D01*
X0082178Y0050621D01*
X0082232Y0050704D01*
X0082289Y0050786D01*
X0082350Y0050864D01*
X0082414Y0050941D01*
X0082480Y0051014D01*
X0082550Y0051085D01*
X0082622Y0051153D01*
X0082697Y0051219D01*
X0082775Y0051281D01*
X0082855Y0051340D01*
X0082937Y0051396D01*
X0083021Y0051448D01*
X0083108Y0051497D01*
X0083196Y0051543D01*
X0083286Y0051585D01*
X0083378Y0051624D01*
X0083471Y0051659D01*
X0083565Y0051690D01*
X0083661Y0051717D01*
X0083758Y0051740D01*
X0083855Y0051760D01*
X0083953Y0051776D01*
X0084052Y0051788D01*
X0084151Y0051796D01*
X0084250Y0051800D01*
X0084350Y0051800D01*
X0084449Y0051796D01*
X0084548Y0051788D01*
X0084647Y0051776D01*
X0084745Y0051760D01*
X0084842Y0051740D01*
X0084939Y0051717D01*
X0085035Y0051690D01*
X0085129Y0051659D01*
X0085222Y0051624D01*
X0085314Y0051585D01*
X0085404Y0051543D01*
X0085492Y0051497D01*
X0085579Y0051448D01*
X0085663Y0051396D01*
X0085745Y0051340D01*
X0085825Y0051281D01*
X0085903Y0051219D01*
X0085978Y0051153D01*
X0086050Y0051085D01*
X0086120Y0051014D01*
X0086186Y0050941D01*
X0086250Y0050864D01*
X0086311Y0050786D01*
X0086368Y0050704D01*
X0086422Y0050621D01*
X0086473Y0050536D01*
X0086521Y0050448D01*
X0086565Y0050359D01*
X0086605Y0050268D01*
X0086642Y0050176D01*
X0086675Y0050082D01*
X0086704Y0049987D01*
X0086729Y0049891D01*
X0086751Y0049794D01*
X0086768Y0049696D01*
X0086782Y0049598D01*
X0086792Y0049499D01*
X0086798Y0049399D01*
X0086800Y0049300D01*
X0086798Y0049201D01*
X0086792Y0049101D01*
X0086782Y0049002D01*
X0086768Y0048904D01*
X0086751Y0048806D01*
X0086729Y0048709D01*
X0086704Y0048613D01*
X0086675Y0048518D01*
X0086642Y0048424D01*
X0086605Y0048332D01*
X0086565Y0048241D01*
X0086521Y0048152D01*
X0086473Y0048064D01*
X0086422Y0047979D01*
X0086368Y0047896D01*
X0086311Y0047814D01*
X0086250Y0047736D01*
X0086186Y0047659D01*
X0086120Y0047586D01*
X0086050Y0047515D01*
X0085978Y0047447D01*
X0085903Y0047381D01*
X0085825Y0047319D01*
X0085745Y0047260D01*
X0085663Y0047204D01*
X0085579Y0047152D01*
X0085492Y0047103D01*
X0085404Y0047057D01*
X0085314Y0047015D01*
X0085222Y0046976D01*
X0085129Y0046941D01*
X0085035Y0046910D01*
X0084939Y0046883D01*
X0084842Y0046860D01*
X0084745Y0046840D01*
X0084647Y0046824D01*
X0084548Y0046812D01*
X0084449Y0046804D01*
X0084350Y0046800D01*
X0084250Y0046800D01*
X0084151Y0046804D01*
X0084052Y0046812D01*
X0083953Y0046824D01*
X0083855Y0046840D01*
X0083758Y0046860D01*
X0083661Y0046883D01*
X0083565Y0046910D01*
X0083471Y0046941D01*
X0083378Y0046976D01*
X0083286Y0047015D01*
X0083196Y0047057D01*
X0083108Y0047103D01*
X0083021Y0047152D01*
X0082937Y0047204D01*
X0082855Y0047260D01*
X0082775Y0047319D01*
X0082697Y0047381D01*
X0082622Y0047447D01*
X0082550Y0047515D01*
X0082480Y0047586D01*
X0082414Y0047659D01*
X0082350Y0047736D01*
X0082289Y0047814D01*
X0082232Y0047896D01*
X0082178Y0047979D01*
X0082127Y0048064D01*
X0082079Y0048152D01*
X0082035Y0048241D01*
X0081995Y0048332D01*
X0081958Y0048424D01*
X0081925Y0048518D01*
X0081896Y0048613D01*
X0081871Y0048709D01*
X0081849Y0048806D01*
X0081832Y0048904D01*
X0081818Y0049002D01*
X0081808Y0049101D01*
X0081802Y0049201D01*
X0081800Y0049300D01*
X0081300Y0051300D02*
X0081300Y0052300D01*
X0082300Y0052300D01*
X0086300Y0052300D02*
X0087300Y0052300D01*
X0087300Y0051300D01*
X0087300Y0047300D02*
X0087300Y0046300D01*
X0086300Y0046300D01*
X0086300Y0043550D02*
X0087300Y0043550D01*
X0087300Y0042550D01*
X0115186Y0034300D02*
X0118414Y0034300D01*
X0118414Y0029300D02*
X0115186Y0029300D01*
X0115186Y0026800D02*
X0118414Y0026800D01*
X0118414Y0021800D02*
X0115186Y0021800D01*
X0139300Y0035300D02*
X0140300Y0034300D01*
X0148300Y0034300D01*
X0149300Y0035300D01*
X0149300Y0043300D01*
X0148300Y0044300D01*
X0149300Y0045300D01*
X0149300Y0053300D01*
X0148300Y0054300D01*
X0149300Y0055300D01*
X0149300Y0063300D01*
X0148300Y0064300D01*
X0140300Y0064300D01*
X0139300Y0063300D01*
X0139300Y0055300D01*
X0140300Y0054300D01*
X0139300Y0053300D01*
X0139300Y0045300D01*
X0140300Y0044300D01*
X0139300Y0043300D01*
X0139300Y0035300D01*
X0118414Y0063050D02*
X0115186Y0063050D01*
X0115186Y0068050D02*
X0118414Y0068050D01*
X0118414Y0071800D02*
X0115186Y0071800D01*
X0115186Y0076800D02*
X0118414Y0076800D01*
X0046800Y0048414D02*
X0046800Y0045186D01*
X0041800Y0045186D02*
X0041800Y0048414D01*
D16*
X0067038Y0046049D02*
X0064300Y0045801D01*
X0064300Y0045801D01*
X0061562Y0046049D01*
X0061561Y0046050D01*
X0061573Y0046153D01*
X0061588Y0046257D01*
X0061607Y0046359D01*
X0061631Y0046461D01*
X0061658Y0046562D01*
X0061688Y0046661D01*
X0061723Y0046760D01*
X0061761Y0046857D01*
X0061803Y0046952D01*
X0061849Y0047046D01*
X0061898Y0047138D01*
X0061950Y0047229D01*
X0062006Y0047317D01*
X0062065Y0047403D01*
X0062128Y0047486D01*
X0062193Y0047567D01*
X0062262Y0047646D01*
X0062333Y0047722D01*
X0062408Y0047795D01*
X0062485Y0047866D01*
X0062564Y0047933D01*
X0062647Y0047997D01*
X0062731Y0048059D01*
X0062818Y0048116D01*
X0062907Y0048171D01*
X0062998Y0048222D01*
X0063091Y0048270D01*
X0063185Y0048314D01*
X0063281Y0048354D01*
X0063379Y0048391D01*
X0063478Y0048424D01*
X0063578Y0048454D01*
X0063679Y0048479D01*
X0063781Y0048501D01*
X0063884Y0048518D01*
X0063988Y0048532D01*
X0064091Y0048542D01*
X0064196Y0048548D01*
X0064300Y0048550D01*
X0064404Y0048548D01*
X0064509Y0048542D01*
X0064612Y0048532D01*
X0064716Y0048518D01*
X0064819Y0048501D01*
X0064921Y0048479D01*
X0065022Y0048454D01*
X0065122Y0048424D01*
X0065221Y0048391D01*
X0065319Y0048354D01*
X0065415Y0048314D01*
X0065509Y0048270D01*
X0065602Y0048222D01*
X0065693Y0048171D01*
X0065782Y0048116D01*
X0065869Y0048059D01*
X0065953Y0047997D01*
X0066036Y0047933D01*
X0066115Y0047866D01*
X0066192Y0047795D01*
X0066267Y0047722D01*
X0066338Y0047646D01*
X0066407Y0047567D01*
X0066472Y0047486D01*
X0066535Y0047403D01*
X0066594Y0047317D01*
X0066650Y0047229D01*
X0066702Y0047138D01*
X0066751Y0047046D01*
X0066797Y0046952D01*
X0066839Y0046857D01*
X0066877Y0046760D01*
X0066912Y0046661D01*
X0066942Y0046562D01*
X0066969Y0046461D01*
X0066993Y0046359D01*
X0067012Y0046257D01*
X0067027Y0046153D01*
X0067039Y0046050D01*
X0066562Y0046049D01*
X0066550Y0046144D01*
X0066534Y0046237D01*
X0066513Y0046330D01*
X0066489Y0046422D01*
X0066461Y0046513D01*
X0066430Y0046602D01*
X0066395Y0046691D01*
X0066356Y0046777D01*
X0066313Y0046862D01*
X0066267Y0046945D01*
X0066217Y0047026D01*
X0066165Y0047105D01*
X0066108Y0047182D01*
X0066049Y0047256D01*
X0065987Y0047328D01*
X0065922Y0047397D01*
X0065854Y0047463D01*
X0065783Y0047527D01*
X0065710Y0047587D01*
X0065634Y0047644D01*
X0065556Y0047698D01*
X0065475Y0047749D01*
X0065393Y0047796D01*
X0065309Y0047840D01*
X0065223Y0047881D01*
X0065135Y0047917D01*
X0065046Y0047950D01*
X0064956Y0047980D01*
X0064864Y0048005D01*
X0064772Y0048027D01*
X0064678Y0048044D01*
X0064584Y0048058D01*
X0064490Y0048068D01*
X0064395Y0048074D01*
X0064300Y0048076D01*
X0064205Y0048074D01*
X0064110Y0048068D01*
X0064016Y0048058D01*
X0063922Y0048044D01*
X0063828Y0048027D01*
X0063736Y0048005D01*
X0063644Y0047980D01*
X0063554Y0047950D01*
X0063465Y0047917D01*
X0063377Y0047881D01*
X0063291Y0047840D01*
X0063207Y0047796D01*
X0063125Y0047749D01*
X0063044Y0047698D01*
X0062966Y0047644D01*
X0062890Y0047587D01*
X0062817Y0047527D01*
X0062746Y0047463D01*
X0062678Y0047397D01*
X0062613Y0047328D01*
X0062551Y0047256D01*
X0062492Y0047182D01*
X0062435Y0047105D01*
X0062383Y0047026D01*
X0062333Y0046945D01*
X0062287Y0046862D01*
X0062244Y0046777D01*
X0062205Y0046691D01*
X0062170Y0046602D01*
X0062139Y0046513D01*
X0062111Y0046422D01*
X0062087Y0046330D01*
X0062066Y0046237D01*
X0062050Y0046144D01*
X0062038Y0046049D01*
X0062515Y0046049D01*
X0062529Y0046131D01*
X0062546Y0046213D01*
X0062567Y0046293D01*
X0062591Y0046373D01*
X0062620Y0046451D01*
X0062652Y0046528D01*
X0062687Y0046603D01*
X0062726Y0046677D01*
X0062768Y0046749D01*
X0062813Y0046819D01*
X0062862Y0046886D01*
X0062914Y0046951D01*
X0062968Y0047014D01*
X0063026Y0047074D01*
X0063086Y0047132D01*
X0063149Y0047186D01*
X0063214Y0047238D01*
X0063282Y0047287D01*
X0063351Y0047332D01*
X0063423Y0047374D01*
X0063497Y0047413D01*
X0063572Y0047448D01*
X0063649Y0047480D01*
X0063727Y0047509D01*
X0063807Y0047533D01*
X0063887Y0047554D01*
X0063969Y0047571D01*
X0064051Y0047585D01*
X0064134Y0047594D01*
X0064217Y0047600D01*
X0064300Y0047602D01*
X0064383Y0047600D01*
X0064466Y0047594D01*
X0064549Y0047585D01*
X0064631Y0047571D01*
X0064713Y0047554D01*
X0064793Y0047533D01*
X0064873Y0047509D01*
X0064951Y0047480D01*
X0065028Y0047448D01*
X0065103Y0047413D01*
X0065177Y0047374D01*
X0065249Y0047332D01*
X0065318Y0047287D01*
X0065386Y0047238D01*
X0065451Y0047186D01*
X0065514Y0047132D01*
X0065574Y0047074D01*
X0065632Y0047014D01*
X0065686Y0046951D01*
X0065738Y0046886D01*
X0065787Y0046819D01*
X0065832Y0046749D01*
X0065874Y0046677D01*
X0065913Y0046603D01*
X0065948Y0046528D01*
X0065980Y0046451D01*
X0066009Y0046373D01*
X0066033Y0046293D01*
X0066054Y0046213D01*
X0066071Y0046131D01*
X0066085Y0046049D01*
X0065605Y0046049D01*
X0065589Y0046119D01*
X0065570Y0046188D01*
X0065547Y0046256D01*
X0065521Y0046323D01*
X0065490Y0046389D01*
X0065457Y0046452D01*
X0065420Y0046514D01*
X0065379Y0046574D01*
X0065336Y0046631D01*
X0065289Y0046686D01*
X0065240Y0046738D01*
X0065188Y0046788D01*
X0065133Y0046835D01*
X0065075Y0046878D01*
X0065016Y0046919D01*
X0064954Y0046956D01*
X0064891Y0046989D01*
X0064825Y0047020D01*
X0064758Y0047046D01*
X0064690Y0047069D01*
X0064621Y0047089D01*
X0064550Y0047104D01*
X0064479Y0047116D01*
X0064408Y0047124D01*
X0064336Y0047128D01*
X0064264Y0047128D01*
X0064192Y0047124D01*
X0064121Y0047116D01*
X0064050Y0047104D01*
X0063979Y0047089D01*
X0063910Y0047069D01*
X0063842Y0047046D01*
X0063775Y0047020D01*
X0063709Y0046989D01*
X0063646Y0046956D01*
X0063584Y0046919D01*
X0063525Y0046878D01*
X0063467Y0046835D01*
X0063412Y0046788D01*
X0063360Y0046738D01*
X0063311Y0046686D01*
X0063264Y0046631D01*
X0063221Y0046574D01*
X0063180Y0046514D01*
X0063143Y0046452D01*
X0063110Y0046389D01*
X0063079Y0046323D01*
X0063053Y0046256D01*
X0063030Y0046188D01*
X0063011Y0046119D01*
X0062995Y0046049D01*
X0063482Y0046046D01*
X0063501Y0046101D01*
X0063523Y0046154D01*
X0063548Y0046205D01*
X0063577Y0046255D01*
X0063609Y0046302D01*
X0063645Y0046348D01*
X0063683Y0046391D01*
X0063724Y0046431D01*
X0063768Y0046468D01*
X0063814Y0046502D01*
X0063862Y0046533D01*
X0063913Y0046561D01*
X0063965Y0046585D01*
X0064018Y0046606D01*
X0064073Y0046623D01*
X0064129Y0046637D01*
X0064185Y0046646D01*
X0064243Y0046652D01*
X0064300Y0046654D01*
X0064357Y0046652D01*
X0064415Y0046646D01*
X0064471Y0046637D01*
X0064527Y0046623D01*
X0064582Y0046606D01*
X0064635Y0046585D01*
X0064687Y0046561D01*
X0064738Y0046533D01*
X0064786Y0046502D01*
X0064832Y0046468D01*
X0064876Y0046431D01*
X0064917Y0046391D01*
X0064955Y0046348D01*
X0064991Y0046302D01*
X0065023Y0046255D01*
X0065052Y0046205D01*
X0065077Y0046154D01*
X0065099Y0046101D01*
X0065118Y0046046D01*
X0064601Y0046032D01*
X0064577Y0046060D01*
X0064551Y0046086D01*
X0064522Y0046108D01*
X0064492Y0046128D01*
X0064459Y0046145D01*
X0064425Y0046159D01*
X0064390Y0046169D01*
X0064355Y0046176D01*
X0064318Y0046180D01*
X0064282Y0046180D01*
X0064245Y0046176D01*
X0064210Y0046169D01*
X0064175Y0046159D01*
X0064141Y0046145D01*
X0064108Y0046128D01*
X0064078Y0046108D01*
X0064049Y0046086D01*
X0064023Y0046060D01*
X0063999Y0046032D01*
X0061562Y0037551D02*
X0064300Y0037799D01*
X0064300Y0037799D01*
X0067038Y0037551D01*
X0067039Y0037550D01*
X0067027Y0037447D01*
X0067012Y0037343D01*
X0066993Y0037241D01*
X0066969Y0037139D01*
X0066942Y0037038D01*
X0066912Y0036939D01*
X0066877Y0036840D01*
X0066839Y0036743D01*
X0066797Y0036648D01*
X0066751Y0036554D01*
X0066702Y0036462D01*
X0066650Y0036371D01*
X0066594Y0036283D01*
X0066535Y0036197D01*
X0066472Y0036114D01*
X0066407Y0036033D01*
X0066338Y0035954D01*
X0066267Y0035878D01*
X0066192Y0035805D01*
X0066115Y0035734D01*
X0066036Y0035667D01*
X0065953Y0035603D01*
X0065869Y0035541D01*
X0065782Y0035484D01*
X0065693Y0035429D01*
X0065602Y0035378D01*
X0065509Y0035330D01*
X0065415Y0035286D01*
X0065319Y0035246D01*
X0065221Y0035209D01*
X0065122Y0035176D01*
X0065022Y0035146D01*
X0064921Y0035121D01*
X0064819Y0035099D01*
X0064716Y0035082D01*
X0064612Y0035068D01*
X0064509Y0035058D01*
X0064404Y0035052D01*
X0064300Y0035050D01*
X0064196Y0035052D01*
X0064091Y0035058D01*
X0063988Y0035068D01*
X0063884Y0035082D01*
X0063781Y0035099D01*
X0063679Y0035121D01*
X0063578Y0035146D01*
X0063478Y0035176D01*
X0063379Y0035209D01*
X0063281Y0035246D01*
X0063185Y0035286D01*
X0063091Y0035330D01*
X0062998Y0035378D01*
X0062907Y0035429D01*
X0062818Y0035484D01*
X0062731Y0035541D01*
X0062647Y0035603D01*
X0062564Y0035667D01*
X0062485Y0035734D01*
X0062408Y0035805D01*
X0062333Y0035878D01*
X0062262Y0035954D01*
X0062193Y0036033D01*
X0062128Y0036114D01*
X0062065Y0036197D01*
X0062006Y0036283D01*
X0061950Y0036371D01*
X0061898Y0036462D01*
X0061849Y0036554D01*
X0061803Y0036648D01*
X0061761Y0036743D01*
X0061723Y0036840D01*
X0061688Y0036939D01*
X0061658Y0037038D01*
X0061631Y0037139D01*
X0061607Y0037241D01*
X0061588Y0037343D01*
X0061573Y0037447D01*
X0061561Y0037550D01*
X0062038Y0037551D01*
X0062050Y0037456D01*
X0062066Y0037363D01*
X0062087Y0037270D01*
X0062111Y0037178D01*
X0062139Y0037087D01*
X0062170Y0036998D01*
X0062205Y0036909D01*
X0062244Y0036823D01*
X0062287Y0036738D01*
X0062333Y0036655D01*
X0062383Y0036574D01*
X0062435Y0036495D01*
X0062492Y0036418D01*
X0062551Y0036344D01*
X0062613Y0036272D01*
X0062678Y0036203D01*
X0062746Y0036137D01*
X0062817Y0036073D01*
X0062890Y0036013D01*
X0062966Y0035956D01*
X0063044Y0035902D01*
X0063125Y0035851D01*
X0063207Y0035804D01*
X0063291Y0035760D01*
X0063377Y0035719D01*
X0063465Y0035683D01*
X0063554Y0035650D01*
X0063644Y0035620D01*
X0063736Y0035595D01*
X0063828Y0035573D01*
X0063922Y0035556D01*
X0064016Y0035542D01*
X0064110Y0035532D01*
X0064205Y0035526D01*
X0064300Y0035524D01*
X0064395Y0035526D01*
X0064490Y0035532D01*
X0064584Y0035542D01*
X0064678Y0035556D01*
X0064772Y0035573D01*
X0064864Y0035595D01*
X0064956Y0035620D01*
X0065046Y0035650D01*
X0065135Y0035683D01*
X0065223Y0035719D01*
X0065309Y0035760D01*
X0065393Y0035804D01*
X0065475Y0035851D01*
X0065556Y0035902D01*
X0065634Y0035956D01*
X0065710Y0036013D01*
X0065783Y0036073D01*
X0065854Y0036137D01*
X0065922Y0036203D01*
X0065987Y0036272D01*
X0066049Y0036344D01*
X0066108Y0036418D01*
X0066165Y0036495D01*
X0066217Y0036574D01*
X0066267Y0036655D01*
X0066313Y0036738D01*
X0066356Y0036823D01*
X0066395Y0036909D01*
X0066430Y0036998D01*
X0066461Y0037087D01*
X0066489Y0037178D01*
X0066513Y0037270D01*
X0066534Y0037363D01*
X0066550Y0037456D01*
X0066562Y0037551D01*
X0066085Y0037551D01*
X0066071Y0037469D01*
X0066054Y0037387D01*
X0066033Y0037307D01*
X0066009Y0037227D01*
X0065980Y0037149D01*
X0065948Y0037072D01*
X0065913Y0036997D01*
X0065874Y0036923D01*
X0065832Y0036851D01*
X0065787Y0036781D01*
X0065738Y0036714D01*
X0065686Y0036649D01*
X0065632Y0036586D01*
X0065574Y0036526D01*
X0065514Y0036468D01*
X0065451Y0036414D01*
X0065386Y0036362D01*
X0065318Y0036313D01*
X0065249Y0036268D01*
X0065177Y0036226D01*
X0065103Y0036187D01*
X0065028Y0036152D01*
X0064951Y0036120D01*
X0064873Y0036091D01*
X0064793Y0036067D01*
X0064713Y0036046D01*
X0064631Y0036029D01*
X0064549Y0036015D01*
X0064466Y0036006D01*
X0064383Y0036000D01*
X0064300Y0035998D01*
X0064217Y0036000D01*
X0064134Y0036006D01*
X0064051Y0036015D01*
X0063969Y0036029D01*
X0063887Y0036046D01*
X0063807Y0036067D01*
X0063727Y0036091D01*
X0063649Y0036120D01*
X0063572Y0036152D01*
X0063497Y0036187D01*
X0063423Y0036226D01*
X0063351Y0036268D01*
X0063282Y0036313D01*
X0063214Y0036362D01*
X0063149Y0036414D01*
X0063086Y0036468D01*
X0063026Y0036526D01*
X0062968Y0036586D01*
X0062914Y0036649D01*
X0062862Y0036714D01*
X0062813Y0036781D01*
X0062768Y0036851D01*
X0062726Y0036923D01*
X0062687Y0036997D01*
X0062652Y0037072D01*
X0062620Y0037149D01*
X0062591Y0037227D01*
X0062567Y0037307D01*
X0062546Y0037387D01*
X0062529Y0037469D01*
X0062515Y0037551D01*
X0062995Y0037551D01*
X0063011Y0037481D01*
X0063030Y0037412D01*
X0063053Y0037344D01*
X0063079Y0037277D01*
X0063110Y0037211D01*
X0063143Y0037148D01*
X0063180Y0037086D01*
X0063221Y0037026D01*
X0063264Y0036969D01*
X0063311Y0036914D01*
X0063360Y0036862D01*
X0063412Y0036812D01*
X0063467Y0036765D01*
X0063525Y0036722D01*
X0063584Y0036681D01*
X0063646Y0036644D01*
X0063709Y0036611D01*
X0063775Y0036580D01*
X0063842Y0036554D01*
X0063910Y0036531D01*
X0063979Y0036511D01*
X0064050Y0036496D01*
X0064121Y0036484D01*
X0064192Y0036476D01*
X0064264Y0036472D01*
X0064336Y0036472D01*
X0064408Y0036476D01*
X0064479Y0036484D01*
X0064550Y0036496D01*
X0064621Y0036511D01*
X0064690Y0036531D01*
X0064758Y0036554D01*
X0064825Y0036580D01*
X0064891Y0036611D01*
X0064954Y0036644D01*
X0065016Y0036681D01*
X0065075Y0036722D01*
X0065133Y0036765D01*
X0065188Y0036812D01*
X0065240Y0036862D01*
X0065289Y0036914D01*
X0065336Y0036969D01*
X0065379Y0037026D01*
X0065420Y0037086D01*
X0065457Y0037148D01*
X0065490Y0037211D01*
X0065521Y0037277D01*
X0065547Y0037344D01*
X0065570Y0037412D01*
X0065589Y0037481D01*
X0065605Y0037551D01*
X0065118Y0037554D01*
X0065099Y0037499D01*
X0065077Y0037446D01*
X0065052Y0037395D01*
X0065023Y0037345D01*
X0064991Y0037298D01*
X0064955Y0037252D01*
X0064917Y0037209D01*
X0064876Y0037169D01*
X0064832Y0037132D01*
X0064786Y0037098D01*
X0064738Y0037067D01*
X0064687Y0037039D01*
X0064635Y0037015D01*
X0064582Y0036994D01*
X0064527Y0036977D01*
X0064471Y0036963D01*
X0064415Y0036954D01*
X0064357Y0036948D01*
X0064300Y0036946D01*
X0064243Y0036948D01*
X0064185Y0036954D01*
X0064129Y0036963D01*
X0064073Y0036977D01*
X0064018Y0036994D01*
X0063965Y0037015D01*
X0063913Y0037039D01*
X0063862Y0037067D01*
X0063814Y0037098D01*
X0063768Y0037132D01*
X0063724Y0037169D01*
X0063683Y0037209D01*
X0063645Y0037252D01*
X0063609Y0037298D01*
X0063577Y0037345D01*
X0063548Y0037395D01*
X0063523Y0037446D01*
X0063501Y0037499D01*
X0063482Y0037554D01*
X0063999Y0037568D01*
X0064023Y0037540D01*
X0064049Y0037514D01*
X0064078Y0037492D01*
X0064108Y0037472D01*
X0064141Y0037455D01*
X0064175Y0037441D01*
X0064210Y0037431D01*
X0064245Y0037424D01*
X0064282Y0037420D01*
X0064318Y0037420D01*
X0064355Y0037424D01*
X0064390Y0037431D01*
X0064425Y0037441D01*
X0064459Y0037455D01*
X0064492Y0037472D01*
X0064522Y0037492D01*
X0064551Y0037514D01*
X0064577Y0037540D01*
X0064601Y0037568D01*
X0040550Y0022198D02*
X0039799Y0022949D01*
X0039049Y0022949D01*
X0038298Y0022198D01*
X0038298Y0019946D01*
X0039799Y0019946D01*
X0040550Y0020697D01*
X0040550Y0022198D01*
X0038298Y0019946D02*
X0036797Y0021447D01*
X0036046Y0022949D01*
X0061562Y0060051D02*
X0064300Y0060299D01*
X0064300Y0060299D01*
X0067038Y0060051D01*
X0067039Y0060050D01*
X0067027Y0059947D01*
X0067012Y0059843D01*
X0066993Y0059741D01*
X0066969Y0059639D01*
X0066942Y0059538D01*
X0066912Y0059439D01*
X0066877Y0059340D01*
X0066839Y0059243D01*
X0066797Y0059148D01*
X0066751Y0059054D01*
X0066702Y0058962D01*
X0066650Y0058871D01*
X0066594Y0058783D01*
X0066535Y0058697D01*
X0066472Y0058614D01*
X0066407Y0058533D01*
X0066338Y0058454D01*
X0066267Y0058378D01*
X0066192Y0058305D01*
X0066115Y0058234D01*
X0066036Y0058167D01*
X0065953Y0058103D01*
X0065869Y0058041D01*
X0065782Y0057984D01*
X0065693Y0057929D01*
X0065602Y0057878D01*
X0065509Y0057830D01*
X0065415Y0057786D01*
X0065319Y0057746D01*
X0065221Y0057709D01*
X0065122Y0057676D01*
X0065022Y0057646D01*
X0064921Y0057621D01*
X0064819Y0057599D01*
X0064716Y0057582D01*
X0064612Y0057568D01*
X0064509Y0057558D01*
X0064404Y0057552D01*
X0064300Y0057550D01*
X0064196Y0057552D01*
X0064091Y0057558D01*
X0063988Y0057568D01*
X0063884Y0057582D01*
X0063781Y0057599D01*
X0063679Y0057621D01*
X0063578Y0057646D01*
X0063478Y0057676D01*
X0063379Y0057709D01*
X0063281Y0057746D01*
X0063185Y0057786D01*
X0063091Y0057830D01*
X0062998Y0057878D01*
X0062907Y0057929D01*
X0062818Y0057984D01*
X0062731Y0058041D01*
X0062647Y0058103D01*
X0062564Y0058167D01*
X0062485Y0058234D01*
X0062408Y0058305D01*
X0062333Y0058378D01*
X0062262Y0058454D01*
X0062193Y0058533D01*
X0062128Y0058614D01*
X0062065Y0058697D01*
X0062006Y0058783D01*
X0061950Y0058871D01*
X0061898Y0058962D01*
X0061849Y0059054D01*
X0061803Y0059148D01*
X0061761Y0059243D01*
X0061723Y0059340D01*
X0061688Y0059439D01*
X0061658Y0059538D01*
X0061631Y0059639D01*
X0061607Y0059741D01*
X0061588Y0059843D01*
X0061573Y0059947D01*
X0061561Y0060050D01*
X0062038Y0060051D01*
X0062050Y0059956D01*
X0062066Y0059863D01*
X0062087Y0059770D01*
X0062111Y0059678D01*
X0062139Y0059587D01*
X0062170Y0059498D01*
X0062205Y0059409D01*
X0062244Y0059323D01*
X0062287Y0059238D01*
X0062333Y0059155D01*
X0062383Y0059074D01*
X0062435Y0058995D01*
X0062492Y0058918D01*
X0062551Y0058844D01*
X0062613Y0058772D01*
X0062678Y0058703D01*
X0062746Y0058637D01*
X0062817Y0058573D01*
X0062890Y0058513D01*
X0062966Y0058456D01*
X0063044Y0058402D01*
X0063125Y0058351D01*
X0063207Y0058304D01*
X0063291Y0058260D01*
X0063377Y0058219D01*
X0063465Y0058183D01*
X0063554Y0058150D01*
X0063644Y0058120D01*
X0063736Y0058095D01*
X0063828Y0058073D01*
X0063922Y0058056D01*
X0064016Y0058042D01*
X0064110Y0058032D01*
X0064205Y0058026D01*
X0064300Y0058024D01*
X0064395Y0058026D01*
X0064490Y0058032D01*
X0064584Y0058042D01*
X0064678Y0058056D01*
X0064772Y0058073D01*
X0064864Y0058095D01*
X0064956Y0058120D01*
X0065046Y0058150D01*
X0065135Y0058183D01*
X0065223Y0058219D01*
X0065309Y0058260D01*
X0065393Y0058304D01*
X0065475Y0058351D01*
X0065556Y0058402D01*
X0065634Y0058456D01*
X0065710Y0058513D01*
X0065783Y0058573D01*
X0065854Y0058637D01*
X0065922Y0058703D01*
X0065987Y0058772D01*
X0066049Y0058844D01*
X0066108Y0058918D01*
X0066165Y0058995D01*
X0066217Y0059074D01*
X0066267Y0059155D01*
X0066313Y0059238D01*
X0066356Y0059323D01*
X0066395Y0059409D01*
X0066430Y0059498D01*
X0066461Y0059587D01*
X0066489Y0059678D01*
X0066513Y0059770D01*
X0066534Y0059863D01*
X0066550Y0059956D01*
X0066562Y0060051D01*
X0066085Y0060051D01*
X0066071Y0059969D01*
X0066054Y0059887D01*
X0066033Y0059807D01*
X0066009Y0059727D01*
X0065980Y0059649D01*
X0065948Y0059572D01*
X0065913Y0059497D01*
X0065874Y0059423D01*
X0065832Y0059351D01*
X0065787Y0059281D01*
X0065738Y0059214D01*
X0065686Y0059149D01*
X0065632Y0059086D01*
X0065574Y0059026D01*
X0065514Y0058968D01*
X0065451Y0058914D01*
X0065386Y0058862D01*
X0065318Y0058813D01*
X0065249Y0058768D01*
X0065177Y0058726D01*
X0065103Y0058687D01*
X0065028Y0058652D01*
X0064951Y0058620D01*
X0064873Y0058591D01*
X0064793Y0058567D01*
X0064713Y0058546D01*
X0064631Y0058529D01*
X0064549Y0058515D01*
X0064466Y0058506D01*
X0064383Y0058500D01*
X0064300Y0058498D01*
X0064217Y0058500D01*
X0064134Y0058506D01*
X0064051Y0058515D01*
X0063969Y0058529D01*
X0063887Y0058546D01*
X0063807Y0058567D01*
X0063727Y0058591D01*
X0063649Y0058620D01*
X0063572Y0058652D01*
X0063497Y0058687D01*
X0063423Y0058726D01*
X0063351Y0058768D01*
X0063282Y0058813D01*
X0063214Y0058862D01*
X0063149Y0058914D01*
X0063086Y0058968D01*
X0063026Y0059026D01*
X0062968Y0059086D01*
X0062914Y0059149D01*
X0062862Y0059214D01*
X0062813Y0059281D01*
X0062768Y0059351D01*
X0062726Y0059423D01*
X0062687Y0059497D01*
X0062652Y0059572D01*
X0062620Y0059649D01*
X0062591Y0059727D01*
X0062567Y0059807D01*
X0062546Y0059887D01*
X0062529Y0059969D01*
X0062515Y0060051D01*
X0062995Y0060051D01*
X0063011Y0059981D01*
X0063030Y0059912D01*
X0063053Y0059844D01*
X0063079Y0059777D01*
X0063110Y0059711D01*
X0063143Y0059648D01*
X0063180Y0059586D01*
X0063221Y0059526D01*
X0063264Y0059469D01*
X0063311Y0059414D01*
X0063360Y0059362D01*
X0063412Y0059312D01*
X0063467Y0059265D01*
X0063525Y0059222D01*
X0063584Y0059181D01*
X0063646Y0059144D01*
X0063709Y0059111D01*
X0063775Y0059080D01*
X0063842Y0059054D01*
X0063910Y0059031D01*
X0063979Y0059011D01*
X0064050Y0058996D01*
X0064121Y0058984D01*
X0064192Y0058976D01*
X0064264Y0058972D01*
X0064336Y0058972D01*
X0064408Y0058976D01*
X0064479Y0058984D01*
X0064550Y0058996D01*
X0064621Y0059011D01*
X0064690Y0059031D01*
X0064758Y0059054D01*
X0064825Y0059080D01*
X0064891Y0059111D01*
X0064954Y0059144D01*
X0065016Y0059181D01*
X0065075Y0059222D01*
X0065133Y0059265D01*
X0065188Y0059312D01*
X0065240Y0059362D01*
X0065289Y0059414D01*
X0065336Y0059469D01*
X0065379Y0059526D01*
X0065420Y0059586D01*
X0065457Y0059648D01*
X0065490Y0059711D01*
X0065521Y0059777D01*
X0065547Y0059844D01*
X0065570Y0059912D01*
X0065589Y0059981D01*
X0065605Y0060051D01*
X0065118Y0060054D01*
X0065099Y0059999D01*
X0065077Y0059946D01*
X0065052Y0059895D01*
X0065023Y0059845D01*
X0064991Y0059798D01*
X0064955Y0059752D01*
X0064917Y0059709D01*
X0064876Y0059669D01*
X0064832Y0059632D01*
X0064786Y0059598D01*
X0064738Y0059567D01*
X0064687Y0059539D01*
X0064635Y0059515D01*
X0064582Y0059494D01*
X0064527Y0059477D01*
X0064471Y0059463D01*
X0064415Y0059454D01*
X0064357Y0059448D01*
X0064300Y0059446D01*
X0064243Y0059448D01*
X0064185Y0059454D01*
X0064129Y0059463D01*
X0064073Y0059477D01*
X0064018Y0059494D01*
X0063965Y0059515D01*
X0063913Y0059539D01*
X0063862Y0059567D01*
X0063814Y0059598D01*
X0063768Y0059632D01*
X0063724Y0059669D01*
X0063683Y0059709D01*
X0063645Y0059752D01*
X0063609Y0059798D01*
X0063577Y0059845D01*
X0063548Y0059895D01*
X0063523Y0059946D01*
X0063501Y0059999D01*
X0063482Y0060054D01*
X0063999Y0060068D01*
X0064023Y0060040D01*
X0064049Y0060014D01*
X0064078Y0059992D01*
X0064108Y0059972D01*
X0064141Y0059955D01*
X0064175Y0059941D01*
X0064210Y0059931D01*
X0064245Y0059924D01*
X0064282Y0059920D01*
X0064318Y0059920D01*
X0064355Y0059924D01*
X0064390Y0059931D01*
X0064425Y0059941D01*
X0064459Y0059955D01*
X0064492Y0059972D01*
X0064522Y0059992D01*
X0064551Y0060014D01*
X0064577Y0060040D01*
X0064601Y0060068D01*
X0067038Y0068549D02*
X0064300Y0068301D01*
X0064300Y0068301D01*
X0061562Y0068549D01*
X0061561Y0068550D01*
X0061573Y0068653D01*
X0061588Y0068757D01*
X0061607Y0068859D01*
X0061631Y0068961D01*
X0061658Y0069062D01*
X0061688Y0069161D01*
X0061723Y0069260D01*
X0061761Y0069357D01*
X0061803Y0069452D01*
X0061849Y0069546D01*
X0061898Y0069638D01*
X0061950Y0069729D01*
X0062006Y0069817D01*
X0062065Y0069903D01*
X0062128Y0069986D01*
X0062193Y0070067D01*
X0062262Y0070146D01*
X0062333Y0070222D01*
X0062408Y0070295D01*
X0062485Y0070366D01*
X0062564Y0070433D01*
X0062647Y0070497D01*
X0062731Y0070559D01*
X0062818Y0070616D01*
X0062907Y0070671D01*
X0062998Y0070722D01*
X0063091Y0070770D01*
X0063185Y0070814D01*
X0063281Y0070854D01*
X0063379Y0070891D01*
X0063478Y0070924D01*
X0063578Y0070954D01*
X0063679Y0070979D01*
X0063781Y0071001D01*
X0063884Y0071018D01*
X0063988Y0071032D01*
X0064091Y0071042D01*
X0064196Y0071048D01*
X0064300Y0071050D01*
X0064404Y0071048D01*
X0064509Y0071042D01*
X0064612Y0071032D01*
X0064716Y0071018D01*
X0064819Y0071001D01*
X0064921Y0070979D01*
X0065022Y0070954D01*
X0065122Y0070924D01*
X0065221Y0070891D01*
X0065319Y0070854D01*
X0065415Y0070814D01*
X0065509Y0070770D01*
X0065602Y0070722D01*
X0065693Y0070671D01*
X0065782Y0070616D01*
X0065869Y0070559D01*
X0065953Y0070497D01*
X0066036Y0070433D01*
X0066115Y0070366D01*
X0066192Y0070295D01*
X0066267Y0070222D01*
X0066338Y0070146D01*
X0066407Y0070067D01*
X0066472Y0069986D01*
X0066535Y0069903D01*
X0066594Y0069817D01*
X0066650Y0069729D01*
X0066702Y0069638D01*
X0066751Y0069546D01*
X0066797Y0069452D01*
X0066839Y0069357D01*
X0066877Y0069260D01*
X0066912Y0069161D01*
X0066942Y0069062D01*
X0066969Y0068961D01*
X0066993Y0068859D01*
X0067012Y0068757D01*
X0067027Y0068653D01*
X0067039Y0068550D01*
X0066562Y0068549D01*
X0066550Y0068644D01*
X0066534Y0068737D01*
X0066513Y0068830D01*
X0066489Y0068922D01*
X0066461Y0069013D01*
X0066430Y0069102D01*
X0066395Y0069191D01*
X0066356Y0069277D01*
X0066313Y0069362D01*
X0066267Y0069445D01*
X0066217Y0069526D01*
X0066165Y0069605D01*
X0066108Y0069682D01*
X0066049Y0069756D01*
X0065987Y0069828D01*
X0065922Y0069897D01*
X0065854Y0069963D01*
X0065783Y0070027D01*
X0065710Y0070087D01*
X0065634Y0070144D01*
X0065556Y0070198D01*
X0065475Y0070249D01*
X0065393Y0070296D01*
X0065309Y0070340D01*
X0065223Y0070381D01*
X0065135Y0070417D01*
X0065046Y0070450D01*
X0064956Y0070480D01*
X0064864Y0070505D01*
X0064772Y0070527D01*
X0064678Y0070544D01*
X0064584Y0070558D01*
X0064490Y0070568D01*
X0064395Y0070574D01*
X0064300Y0070576D01*
X0064205Y0070574D01*
X0064110Y0070568D01*
X0064016Y0070558D01*
X0063922Y0070544D01*
X0063828Y0070527D01*
X0063736Y0070505D01*
X0063644Y0070480D01*
X0063554Y0070450D01*
X0063465Y0070417D01*
X0063377Y0070381D01*
X0063291Y0070340D01*
X0063207Y0070296D01*
X0063125Y0070249D01*
X0063044Y0070198D01*
X0062966Y0070144D01*
X0062890Y0070087D01*
X0062817Y0070027D01*
X0062746Y0069963D01*
X0062678Y0069897D01*
X0062613Y0069828D01*
X0062551Y0069756D01*
X0062492Y0069682D01*
X0062435Y0069605D01*
X0062383Y0069526D01*
X0062333Y0069445D01*
X0062287Y0069362D01*
X0062244Y0069277D01*
X0062205Y0069191D01*
X0062170Y0069102D01*
X0062139Y0069013D01*
X0062111Y0068922D01*
X0062087Y0068830D01*
X0062066Y0068737D01*
X0062050Y0068644D01*
X0062038Y0068549D01*
X0062515Y0068549D01*
X0062529Y0068631D01*
X0062546Y0068713D01*
X0062567Y0068793D01*
X0062591Y0068873D01*
X0062620Y0068951D01*
X0062652Y0069028D01*
X0062687Y0069103D01*
X0062726Y0069177D01*
X0062768Y0069249D01*
X0062813Y0069319D01*
X0062862Y0069386D01*
X0062914Y0069451D01*
X0062968Y0069514D01*
X0063026Y0069574D01*
X0063086Y0069632D01*
X0063149Y0069686D01*
X0063214Y0069738D01*
X0063282Y0069787D01*
X0063351Y0069832D01*
X0063423Y0069874D01*
X0063497Y0069913D01*
X0063572Y0069948D01*
X0063649Y0069980D01*
X0063727Y0070009D01*
X0063807Y0070033D01*
X0063887Y0070054D01*
X0063969Y0070071D01*
X0064051Y0070085D01*
X0064134Y0070094D01*
X0064217Y0070100D01*
X0064300Y0070102D01*
X0064383Y0070100D01*
X0064466Y0070094D01*
X0064549Y0070085D01*
X0064631Y0070071D01*
X0064713Y0070054D01*
X0064793Y0070033D01*
X0064873Y0070009D01*
X0064951Y0069980D01*
X0065028Y0069948D01*
X0065103Y0069913D01*
X0065177Y0069874D01*
X0065249Y0069832D01*
X0065318Y0069787D01*
X0065386Y0069738D01*
X0065451Y0069686D01*
X0065514Y0069632D01*
X0065574Y0069574D01*
X0065632Y0069514D01*
X0065686Y0069451D01*
X0065738Y0069386D01*
X0065787Y0069319D01*
X0065832Y0069249D01*
X0065874Y0069177D01*
X0065913Y0069103D01*
X0065948Y0069028D01*
X0065980Y0068951D01*
X0066009Y0068873D01*
X0066033Y0068793D01*
X0066054Y0068713D01*
X0066071Y0068631D01*
X0066085Y0068549D01*
X0065605Y0068549D01*
X0065589Y0068619D01*
X0065570Y0068688D01*
X0065547Y0068756D01*
X0065521Y0068823D01*
X0065490Y0068889D01*
X0065457Y0068952D01*
X0065420Y0069014D01*
X0065379Y0069074D01*
X0065336Y0069131D01*
X0065289Y0069186D01*
X0065240Y0069238D01*
X0065188Y0069288D01*
X0065133Y0069335D01*
X0065075Y0069378D01*
X0065016Y0069419D01*
X0064954Y0069456D01*
X0064891Y0069489D01*
X0064825Y0069520D01*
X0064758Y0069546D01*
X0064690Y0069569D01*
X0064621Y0069589D01*
X0064550Y0069604D01*
X0064479Y0069616D01*
X0064408Y0069624D01*
X0064336Y0069628D01*
X0064264Y0069628D01*
X0064192Y0069624D01*
X0064121Y0069616D01*
X0064050Y0069604D01*
X0063979Y0069589D01*
X0063910Y0069569D01*
X0063842Y0069546D01*
X0063775Y0069520D01*
X0063709Y0069489D01*
X0063646Y0069456D01*
X0063584Y0069419D01*
X0063525Y0069378D01*
X0063467Y0069335D01*
X0063412Y0069288D01*
X0063360Y0069238D01*
X0063311Y0069186D01*
X0063264Y0069131D01*
X0063221Y0069074D01*
X0063180Y0069014D01*
X0063143Y0068952D01*
X0063110Y0068889D01*
X0063079Y0068823D01*
X0063053Y0068756D01*
X0063030Y0068688D01*
X0063011Y0068619D01*
X0062995Y0068549D01*
X0063482Y0068546D01*
X0063501Y0068601D01*
X0063523Y0068654D01*
X0063548Y0068705D01*
X0063577Y0068755D01*
X0063609Y0068802D01*
X0063645Y0068848D01*
X0063683Y0068891D01*
X0063724Y0068931D01*
X0063768Y0068968D01*
X0063814Y0069002D01*
X0063862Y0069033D01*
X0063913Y0069061D01*
X0063965Y0069085D01*
X0064018Y0069106D01*
X0064073Y0069123D01*
X0064129Y0069137D01*
X0064185Y0069146D01*
X0064243Y0069152D01*
X0064300Y0069154D01*
X0064357Y0069152D01*
X0064415Y0069146D01*
X0064471Y0069137D01*
X0064527Y0069123D01*
X0064582Y0069106D01*
X0064635Y0069085D01*
X0064687Y0069061D01*
X0064738Y0069033D01*
X0064786Y0069002D01*
X0064832Y0068968D01*
X0064876Y0068931D01*
X0064917Y0068891D01*
X0064955Y0068848D01*
X0064991Y0068802D01*
X0065023Y0068755D01*
X0065052Y0068705D01*
X0065077Y0068654D01*
X0065099Y0068601D01*
X0065118Y0068546D01*
X0064601Y0068532D01*
X0064577Y0068560D01*
X0064551Y0068586D01*
X0064522Y0068608D01*
X0064492Y0068628D01*
X0064459Y0068645D01*
X0064425Y0068659D01*
X0064390Y0068669D01*
X0064355Y0068676D01*
X0064318Y0068680D01*
X0064282Y0068680D01*
X0064245Y0068676D01*
X0064210Y0068669D01*
X0064175Y0068659D01*
X0064141Y0068645D01*
X0064108Y0068628D01*
X0064078Y0068608D01*
X0064049Y0068586D01*
X0064023Y0068560D01*
X0063999Y0068532D01*
X0022550Y0069946D02*
X0022550Y0072949D01*
X0022550Y0071447D02*
X0018046Y0071447D01*
X0019547Y0069946D01*
X0134047Y0057093D02*
X0135181Y0055959D01*
X0134047Y0057093D02*
X0137450Y0057093D01*
X0137450Y0055959D02*
X0137450Y0058228D01*
X0137450Y0048228D02*
X0137450Y0045959D01*
X0135181Y0048228D01*
X0134614Y0048228D01*
X0134047Y0047660D01*
X0134047Y0046526D01*
X0134614Y0045959D01*
X0134614Y0038228D02*
X0135181Y0038228D01*
X0135749Y0037660D01*
X0136316Y0038228D01*
X0136883Y0038228D01*
X0137450Y0037660D01*
X0137450Y0036526D01*
X0136883Y0035959D01*
X0135749Y0037093D02*
X0135749Y0037660D01*
X0134614Y0038228D02*
X0134047Y0037660D01*
X0134047Y0036526D01*
X0134614Y0035959D01*
D17*
X0144300Y0039300D03*
X0144300Y0049300D03*
X0144300Y0059300D03*
D18*
X0119680Y0065556D03*
X0113880Y0065556D03*
X0113880Y0074306D03*
X0119680Y0074306D03*
X0099680Y0060556D03*
X0093880Y0060556D03*
X0093880Y0053056D03*
X0099680Y0053056D03*
X0099680Y0045556D03*
X0093880Y0045556D03*
X0093880Y0038056D03*
X0099680Y0038056D03*
X0113880Y0031806D03*
X0119680Y0031806D03*
X0119680Y0024306D03*
X0113880Y0024306D03*
D19*
X0044294Y0023880D03*
X0044294Y0029680D03*
X0044306Y0043920D03*
X0044306Y0049720D03*
D20*
X0029300Y0051800D03*
X0029300Y0061800D03*
X0029300Y0071800D03*
X0029300Y0041800D03*
X0029300Y0031800D03*
X0029300Y0021800D03*
D21*
X0064300Y0041800D03*
X0064300Y0064300D03*
M02*
