G75*
%MOIN*%
%OFA0B0*%
%FSLAX25Y25*%
%IPPOS*%
%LPD*%
%AMOC8*
5,1,8,0,0,1.08239X$1,22.5*
%
%ADD10R,0.05906X0.05118*%
%ADD11C,0.05600*%
%ADD12R,0.05118X0.05906*%
%ADD13C,0.06000*%
%ADD14OC8,0.06300*%
%ADD15R,0.06300X0.04600*%
%ADD16C,0.01600*%
%ADD17C,0.03569*%
D10*
X0044300Y0023060D03*
X0044300Y0030540D03*
X0044300Y0043060D03*
X0044300Y0050540D03*
X0129300Y0053060D03*
X0129300Y0060540D03*
X0129300Y0068060D03*
X0129300Y0075540D03*
X0129300Y0045540D03*
X0129300Y0038060D03*
X0129300Y0030540D03*
X0129300Y0023060D03*
D11*
X0141500Y0039300D02*
X0147100Y0039300D01*
X0147100Y0049300D02*
X0141500Y0049300D01*
X0141500Y0059300D02*
X0147100Y0059300D01*
D12*
X0120540Y0065550D03*
X0113060Y0065550D03*
X0100540Y0060550D03*
X0093060Y0060550D03*
X0093060Y0053050D03*
X0100540Y0053050D03*
X0100540Y0045550D03*
X0093060Y0045550D03*
X0093060Y0038050D03*
X0100540Y0038050D03*
X0113060Y0031800D03*
X0120540Y0031800D03*
X0120540Y0024300D03*
X0113060Y0024300D03*
X0113060Y0074300D03*
X0120540Y0074300D03*
D13*
X0032300Y0071800D02*
X0026300Y0071800D01*
X0026300Y0061800D02*
X0032300Y0061800D01*
X0032300Y0051800D02*
X0026300Y0051800D01*
X0026300Y0041800D02*
X0032300Y0041800D01*
X0032300Y0031800D02*
X0026300Y0031800D01*
X0026300Y0021800D02*
X0032300Y0021800D01*
D14*
X0084300Y0040550D03*
X0084300Y0049300D03*
D15*
X0064300Y0047800D03*
X0064300Y0041800D03*
X0064300Y0035800D03*
X0064300Y0058300D03*
X0064300Y0064300D03*
X0064300Y0070300D03*
D16*
X0019100Y0085701D02*
X0019100Y0016600D01*
X0154421Y0016600D01*
X0154421Y0085701D01*
X0019100Y0085701D01*
X0019100Y0085332D02*
X0154421Y0085332D01*
X0154421Y0083733D02*
X0019100Y0083733D01*
X0019100Y0082134D02*
X0154421Y0082134D01*
X0154421Y0080536D02*
X0019100Y0080536D01*
X0019100Y0078937D02*
X0109357Y0078937D01*
X0109672Y0079253D02*
X0108501Y0078081D01*
X0108501Y0076211D01*
X0105640Y0073350D01*
X0078102Y0073350D01*
X0077694Y0073758D01*
X0076303Y0074334D01*
X0074797Y0074334D01*
X0073406Y0073758D01*
X0072998Y0073350D01*
X0069450Y0073350D01*
X0069450Y0073428D01*
X0068278Y0074600D01*
X0060322Y0074600D01*
X0059150Y0073428D01*
X0059150Y0067100D01*
X0057960Y0067100D01*
X0050886Y0074174D01*
X0049857Y0074600D01*
X0036552Y0074600D01*
X0036539Y0074632D01*
X0035132Y0076039D01*
X0033295Y0076800D01*
X0025305Y0076800D01*
X0023468Y0076039D01*
X0022061Y0074632D01*
X0021300Y0072795D01*
X0021300Y0070805D01*
X0022061Y0068968D01*
X0023468Y0067561D01*
X0025305Y0066800D01*
X0033295Y0066800D01*
X0035132Y0067561D01*
X0036539Y0068968D01*
X0036552Y0069000D01*
X0048140Y0069000D01*
X0054426Y0062714D01*
X0055214Y0061926D01*
X0056243Y0061500D01*
X0059150Y0061500D01*
X0059150Y0055172D01*
X0060322Y0054000D01*
X0067750Y0054000D01*
X0067750Y0052100D01*
X0060584Y0052100D01*
X0060584Y0052553D01*
X0060008Y0053944D01*
X0058944Y0055008D01*
X0057553Y0055584D01*
X0056047Y0055584D01*
X0054656Y0055008D01*
X0053592Y0053944D01*
X0053016Y0052553D01*
X0053016Y0051047D01*
X0053592Y0049656D01*
X0054656Y0048592D01*
X0056047Y0048016D01*
X0056624Y0048016D01*
X0059150Y0045490D01*
X0059150Y0044600D01*
X0049253Y0044600D01*
X0049253Y0046447D01*
X0048741Y0046959D01*
X0048930Y0047286D01*
X0049053Y0047744D01*
X0049053Y0050061D01*
X0044780Y0050061D01*
X0044780Y0051020D01*
X0049053Y0051020D01*
X0049053Y0053336D01*
X0048930Y0053794D01*
X0048693Y0054204D01*
X0048358Y0054540D01*
X0047948Y0054777D01*
X0047490Y0054899D01*
X0044780Y0054899D01*
X0044780Y0051020D01*
X0043820Y0051020D01*
X0043820Y0050061D01*
X0039547Y0050061D01*
X0039547Y0047744D01*
X0039670Y0047286D01*
X0039859Y0046959D01*
X0039347Y0046447D01*
X0039347Y0044600D01*
X0036552Y0044600D01*
X0036539Y0044632D01*
X0035132Y0046039D01*
X0033295Y0046800D01*
X0025305Y0046800D01*
X0023468Y0046039D01*
X0022061Y0044632D01*
X0021300Y0042795D01*
X0021300Y0040805D01*
X0022061Y0038968D01*
X0023468Y0037561D01*
X0025305Y0036800D01*
X0023468Y0036039D01*
X0022061Y0034632D01*
X0021300Y0032795D01*
X0021300Y0030805D01*
X0022061Y0028968D01*
X0023468Y0027561D01*
X0025305Y0026800D01*
X0033295Y0026800D01*
X0035132Y0027561D01*
X0036539Y0028968D01*
X0036552Y0029000D01*
X0039347Y0029000D01*
X0039347Y0027153D01*
X0039859Y0026641D01*
X0039670Y0026314D01*
X0039547Y0025856D01*
X0039547Y0023539D01*
X0043820Y0023539D01*
X0043820Y0022580D01*
X0039547Y0022580D01*
X0039547Y0020264D01*
X0039670Y0019806D01*
X0039907Y0019396D01*
X0040242Y0019060D01*
X0040652Y0018823D01*
X0041110Y0018701D01*
X0043820Y0018701D01*
X0043820Y0022580D01*
X0044780Y0022580D01*
X0044780Y0023539D01*
X0049053Y0023539D01*
X0049053Y0025587D01*
X0054426Y0020214D01*
X0055214Y0019426D01*
X0056243Y0019000D01*
X0102357Y0019000D01*
X0103386Y0019426D01*
X0105460Y0021500D01*
X0108501Y0021500D01*
X0108501Y0020519D01*
X0109672Y0019347D01*
X0116447Y0019347D01*
X0116800Y0019700D01*
X0117153Y0019347D01*
X0123928Y0019347D01*
X0124347Y0019767D01*
X0124347Y0019672D01*
X0125519Y0018501D01*
X0133081Y0018501D01*
X0134253Y0019672D01*
X0134253Y0026447D01*
X0133900Y0026800D01*
X0134253Y0027153D01*
X0134253Y0033928D01*
X0133880Y0034300D01*
X0134253Y0034672D01*
X0134253Y0036500D01*
X0137512Y0036500D01*
X0138781Y0035231D01*
X0140545Y0034500D01*
X0148055Y0034500D01*
X0149819Y0035231D01*
X0151169Y0036581D01*
X0151900Y0038345D01*
X0151900Y0040255D01*
X0151169Y0042019D01*
X0149819Y0043369D01*
X0148055Y0044100D01*
X0140545Y0044100D01*
X0138781Y0043369D01*
X0137512Y0042100D01*
X0133822Y0042100D01*
X0133930Y0042286D01*
X0134053Y0042744D01*
X0134053Y0045061D01*
X0129780Y0045061D01*
X0129780Y0046020D01*
X0134053Y0046020D01*
X0134053Y0048336D01*
X0133930Y0048794D01*
X0133693Y0049204D01*
X0133598Y0049300D01*
X0133693Y0049396D01*
X0133930Y0049806D01*
X0134053Y0050264D01*
X0134053Y0052580D01*
X0129780Y0052580D01*
X0129780Y0053539D01*
X0134053Y0053539D01*
X0134053Y0055856D01*
X0133930Y0056314D01*
X0133822Y0056500D01*
X0137512Y0056500D01*
X0138781Y0055231D01*
X0140545Y0054500D01*
X0148055Y0054500D01*
X0149819Y0055231D01*
X0151169Y0056581D01*
X0151900Y0058345D01*
X0151900Y0060255D01*
X0151169Y0062019D01*
X0149819Y0063369D01*
X0148055Y0064100D01*
X0140545Y0064100D01*
X0138781Y0063369D01*
X0137512Y0062100D01*
X0134253Y0062100D01*
X0134253Y0063928D01*
X0133880Y0064300D01*
X0134253Y0064672D01*
X0134253Y0071447D01*
X0133900Y0071800D01*
X0134253Y0072153D01*
X0134253Y0078928D01*
X0133081Y0080099D01*
X0125519Y0080099D01*
X0124347Y0078928D01*
X0124347Y0078833D01*
X0123928Y0079253D01*
X0117153Y0079253D01*
X0116800Y0078900D01*
X0116447Y0079253D01*
X0109672Y0079253D01*
X0108501Y0077339D02*
X0019100Y0077339D01*
X0019100Y0075740D02*
X0023169Y0075740D01*
X0021858Y0074142D02*
X0019100Y0074142D01*
X0019100Y0072543D02*
X0021300Y0072543D01*
X0021300Y0070945D02*
X0019100Y0070945D01*
X0019100Y0069346D02*
X0021904Y0069346D01*
X0023281Y0067748D02*
X0019100Y0067748D01*
X0019100Y0066149D02*
X0023735Y0066149D01*
X0023468Y0066039D02*
X0022061Y0064632D01*
X0021300Y0062795D01*
X0021300Y0060805D01*
X0022061Y0058968D01*
X0023468Y0057561D01*
X0025305Y0056800D01*
X0033295Y0056800D01*
X0035132Y0057561D01*
X0036539Y0058968D01*
X0037300Y0060805D01*
X0037300Y0062795D01*
X0036539Y0064632D01*
X0035132Y0066039D01*
X0033295Y0066800D01*
X0025305Y0066800D01*
X0023468Y0066039D01*
X0022027Y0064551D02*
X0019100Y0064551D01*
X0019100Y0062952D02*
X0021365Y0062952D01*
X0021300Y0061354D02*
X0019100Y0061354D01*
X0019100Y0059755D02*
X0021735Y0059755D01*
X0022872Y0058157D02*
X0019100Y0058157D01*
X0019100Y0056558D02*
X0024722Y0056558D01*
X0025305Y0056800D02*
X0023468Y0056039D01*
X0022061Y0054632D01*
X0021300Y0052795D01*
X0021300Y0050805D01*
X0022061Y0048968D01*
X0023468Y0047561D01*
X0025305Y0046800D01*
X0033295Y0046800D01*
X0035132Y0047561D01*
X0036539Y0048968D01*
X0037300Y0050805D01*
X0037300Y0052795D01*
X0036539Y0054632D01*
X0035132Y0056039D01*
X0033295Y0056800D01*
X0025305Y0056800D01*
X0022389Y0054960D02*
X0019100Y0054960D01*
X0019100Y0053361D02*
X0021535Y0053361D01*
X0021300Y0051763D02*
X0019100Y0051763D01*
X0019100Y0050164D02*
X0021566Y0050164D01*
X0022463Y0048566D02*
X0019100Y0048566D01*
X0019100Y0046967D02*
X0024902Y0046967D01*
X0022798Y0045369D02*
X0019100Y0045369D01*
X0019100Y0043770D02*
X0021704Y0043770D01*
X0021300Y0042172D02*
X0019100Y0042172D01*
X0019100Y0040573D02*
X0021396Y0040573D01*
X0022058Y0038975D02*
X0019100Y0038975D01*
X0019100Y0037376D02*
X0023914Y0037376D01*
X0025305Y0036800D02*
X0033295Y0036800D01*
X0035132Y0036039D01*
X0036539Y0034632D01*
X0036552Y0034600D01*
X0040020Y0034600D01*
X0040519Y0035099D01*
X0048081Y0035099D01*
X0049253Y0033928D01*
X0049253Y0033077D01*
X0049646Y0032914D01*
X0057960Y0024600D01*
X0100640Y0024600D01*
X0101926Y0025886D01*
X0102714Y0026674D01*
X0103743Y0027100D01*
X0108501Y0027100D01*
X0108501Y0028291D01*
X0108386Y0028176D01*
X0107357Y0027750D01*
X0101710Y0027750D01*
X0100424Y0026464D01*
X0099636Y0025676D01*
X0098607Y0025250D01*
X0076243Y0025250D01*
X0075214Y0025676D01*
X0068834Y0032056D01*
X0068278Y0031500D01*
X0060322Y0031500D01*
X0059150Y0032672D01*
X0059150Y0039000D01*
X0048580Y0039000D01*
X0048081Y0038501D01*
X0040519Y0038501D01*
X0040020Y0039000D01*
X0036552Y0039000D01*
X0036539Y0038968D01*
X0035132Y0037561D01*
X0033295Y0036800D01*
X0025305Y0036800D01*
X0023207Y0035778D02*
X0019100Y0035778D01*
X0019100Y0034179D02*
X0021874Y0034179D01*
X0021300Y0032581D02*
X0019100Y0032581D01*
X0019100Y0030982D02*
X0021300Y0030982D01*
X0021889Y0029384D02*
X0019100Y0029384D01*
X0019100Y0027785D02*
X0023244Y0027785D01*
X0024336Y0026187D02*
X0019100Y0026187D01*
X0019100Y0024588D02*
X0022393Y0024588D01*
X0022195Y0024316D02*
X0021852Y0023643D01*
X0021618Y0022924D01*
X0021500Y0022178D01*
X0021500Y0022000D01*
X0029100Y0022000D01*
X0029100Y0026600D01*
X0025922Y0026600D01*
X0025176Y0026482D01*
X0024457Y0026248D01*
X0023784Y0025905D01*
X0023173Y0025461D01*
X0022639Y0024927D01*
X0022195Y0024316D01*
X0021640Y0022990D02*
X0019100Y0022990D01*
X0019100Y0021391D02*
X0021505Y0021391D01*
X0021500Y0021422D02*
X0021618Y0020676D01*
X0021852Y0019957D01*
X0022195Y0019284D01*
X0022639Y0018673D01*
X0023173Y0018139D01*
X0023784Y0017695D01*
X0024457Y0017352D01*
X0025176Y0017118D01*
X0025922Y0017000D01*
X0029100Y0017000D01*
X0029100Y0021600D01*
X0029500Y0021600D01*
X0029500Y0022000D01*
X0029100Y0022000D01*
X0029100Y0021600D01*
X0021500Y0021600D01*
X0021500Y0021422D01*
X0021936Y0019793D02*
X0019100Y0019793D01*
X0019100Y0018194D02*
X0023118Y0018194D01*
X0029100Y0018194D02*
X0029500Y0018194D01*
X0029500Y0017000D02*
X0032678Y0017000D01*
X0033424Y0017118D01*
X0034143Y0017352D01*
X0034816Y0017695D01*
X0035427Y0018139D01*
X0035961Y0018673D01*
X0036405Y0019284D01*
X0036748Y0019957D01*
X0036982Y0020676D01*
X0037100Y0021422D01*
X0037100Y0021600D01*
X0029500Y0021600D01*
X0029500Y0017000D01*
X0029500Y0019793D02*
X0029100Y0019793D01*
X0029100Y0021391D02*
X0029500Y0021391D01*
X0029500Y0022000D02*
X0037100Y0022000D01*
X0037100Y0022178D01*
X0036982Y0022924D01*
X0036748Y0023643D01*
X0036405Y0024316D01*
X0035961Y0024927D01*
X0035427Y0025461D01*
X0034816Y0025905D01*
X0034143Y0026248D01*
X0033424Y0026482D01*
X0032678Y0026600D01*
X0029500Y0026600D01*
X0029500Y0022000D01*
X0029500Y0022990D02*
X0029100Y0022990D01*
X0029100Y0024588D02*
X0029500Y0024588D01*
X0029500Y0026187D02*
X0029100Y0026187D01*
X0034264Y0026187D02*
X0039636Y0026187D01*
X0039347Y0027785D02*
X0035356Y0027785D01*
X0036207Y0024588D02*
X0039547Y0024588D01*
X0036960Y0022990D02*
X0043820Y0022990D01*
X0044780Y0022990D02*
X0051651Y0022990D01*
X0050052Y0024588D02*
X0049053Y0024588D01*
X0049053Y0022580D02*
X0044780Y0022580D01*
X0044780Y0018701D01*
X0047490Y0018701D01*
X0047948Y0018823D01*
X0048358Y0019060D01*
X0048693Y0019396D01*
X0048930Y0019806D01*
X0049053Y0020264D01*
X0049053Y0022580D01*
X0049053Y0021391D02*
X0053249Y0021391D01*
X0054426Y0020214D02*
X0054426Y0020214D01*
X0054848Y0019793D02*
X0048922Y0019793D01*
X0044780Y0019793D02*
X0043820Y0019793D01*
X0043820Y0021391D02*
X0044780Y0021391D01*
X0039547Y0021391D02*
X0037095Y0021391D01*
X0036664Y0019793D02*
X0039678Y0019793D01*
X0035482Y0018194D02*
X0154421Y0018194D01*
X0154421Y0019793D02*
X0134253Y0019793D01*
X0134253Y0021391D02*
X0154421Y0021391D01*
X0154421Y0022990D02*
X0134253Y0022990D01*
X0134253Y0024588D02*
X0154421Y0024588D01*
X0154421Y0026187D02*
X0134253Y0026187D01*
X0134253Y0027785D02*
X0154421Y0027785D01*
X0154421Y0029384D02*
X0134253Y0029384D01*
X0134253Y0030982D02*
X0154421Y0030982D01*
X0154421Y0032581D02*
X0134253Y0032581D01*
X0134001Y0034179D02*
X0154421Y0034179D01*
X0154421Y0035778D02*
X0150366Y0035778D01*
X0151499Y0037376D02*
X0154421Y0037376D01*
X0154421Y0038975D02*
X0151900Y0038975D01*
X0151768Y0040573D02*
X0154421Y0040573D01*
X0154421Y0042172D02*
X0151016Y0042172D01*
X0148851Y0043770D02*
X0154421Y0043770D01*
X0154421Y0045369D02*
X0149515Y0045369D01*
X0149511Y0045366D02*
X0150097Y0045791D01*
X0150609Y0046303D01*
X0151034Y0046889D01*
X0151363Y0047534D01*
X0151587Y0048223D01*
X0151700Y0048938D01*
X0151700Y0049200D01*
X0144400Y0049200D01*
X0144400Y0049400D01*
X0144200Y0049400D01*
X0144200Y0053900D01*
X0141138Y0053900D01*
X0140423Y0053787D01*
X0139734Y0053563D01*
X0139089Y0053234D01*
X0138503Y0052809D01*
X0137991Y0052297D01*
X0137566Y0051711D01*
X0137237Y0051066D01*
X0137013Y0050377D01*
X0136900Y0049662D01*
X0136900Y0049400D01*
X0144200Y0049400D01*
X0144200Y0049200D01*
X0144400Y0049200D01*
X0144400Y0044700D01*
X0147462Y0044700D01*
X0148177Y0044813D01*
X0148866Y0045037D01*
X0149511Y0045366D01*
X0151074Y0046967D02*
X0154421Y0046967D01*
X0154421Y0048566D02*
X0151641Y0048566D01*
X0151700Y0049400D02*
X0151700Y0049662D01*
X0151587Y0050377D01*
X0151363Y0051066D01*
X0151034Y0051711D01*
X0150609Y0052297D01*
X0150097Y0052809D01*
X0149511Y0053234D01*
X0148866Y0053563D01*
X0148177Y0053787D01*
X0147462Y0053900D01*
X0144400Y0053900D01*
X0144400Y0049400D01*
X0151700Y0049400D01*
X0151620Y0050164D02*
X0154421Y0050164D01*
X0154421Y0051763D02*
X0150997Y0051763D01*
X0149262Y0053361D02*
X0154421Y0053361D01*
X0154421Y0054960D02*
X0149165Y0054960D01*
X0151147Y0056558D02*
X0154421Y0056558D01*
X0154421Y0058157D02*
X0151822Y0058157D01*
X0151900Y0059755D02*
X0154421Y0059755D01*
X0154421Y0061354D02*
X0151445Y0061354D01*
X0150236Y0062952D02*
X0154421Y0062952D01*
X0154421Y0064551D02*
X0134131Y0064551D01*
X0134253Y0066149D02*
X0154421Y0066149D01*
X0154421Y0067748D02*
X0134253Y0067748D01*
X0134253Y0069346D02*
X0154421Y0069346D01*
X0154421Y0070945D02*
X0134253Y0070945D01*
X0134253Y0072543D02*
X0154421Y0072543D01*
X0154421Y0074142D02*
X0134253Y0074142D01*
X0134253Y0075740D02*
X0154421Y0075740D01*
X0154421Y0077339D02*
X0134253Y0077339D01*
X0134243Y0078937D02*
X0154421Y0078937D01*
X0129300Y0075540D02*
X0128060Y0074300D01*
X0120540Y0074300D01*
X0120540Y0065550D01*
X0113060Y0065550D02*
X0106800Y0065550D01*
X0105550Y0066800D01*
X0083050Y0066800D01*
X0074550Y0058300D01*
X0070550Y0058300D01*
X0064300Y0058300D01*
X0064300Y0064300D01*
X0056800Y0064300D01*
X0049300Y0071800D01*
X0029300Y0071800D01*
X0035319Y0067748D02*
X0049392Y0067748D01*
X0050991Y0066149D02*
X0034865Y0066149D01*
X0036573Y0064551D02*
X0052589Y0064551D01*
X0054188Y0062952D02*
X0037235Y0062952D01*
X0037300Y0061354D02*
X0059150Y0061354D01*
X0059150Y0059755D02*
X0036865Y0059755D01*
X0035728Y0058157D02*
X0059150Y0058157D01*
X0059150Y0056558D02*
X0033878Y0056558D01*
X0036211Y0054960D02*
X0054608Y0054960D01*
X0053351Y0053361D02*
X0049046Y0053361D01*
X0049053Y0051763D02*
X0053016Y0051763D01*
X0053381Y0050164D02*
X0044780Y0050164D01*
X0043820Y0050164D02*
X0037034Y0050164D01*
X0037300Y0051763D02*
X0039547Y0051763D01*
X0039547Y0051020D02*
X0043820Y0051020D01*
X0043820Y0054899D01*
X0041110Y0054899D01*
X0040652Y0054777D01*
X0040242Y0054540D01*
X0039907Y0054204D01*
X0039670Y0053794D01*
X0039547Y0053336D01*
X0039547Y0051020D01*
X0039554Y0053361D02*
X0037065Y0053361D01*
X0043820Y0053361D02*
X0044780Y0053361D01*
X0044780Y0051763D02*
X0043820Y0051763D01*
X0039547Y0048566D02*
X0036137Y0048566D01*
X0033698Y0046967D02*
X0039854Y0046967D01*
X0039347Y0045369D02*
X0035802Y0045369D01*
X0029300Y0041800D02*
X0043040Y0041800D01*
X0044300Y0043060D01*
X0044300Y0041800D01*
X0064300Y0041800D01*
X0064300Y0047800D01*
X0060800Y0047800D01*
X0056800Y0051800D01*
X0060249Y0053361D02*
X0067750Y0053361D01*
X0059362Y0054960D02*
X0058992Y0054960D01*
X0070550Y0058300D02*
X0070550Y0035550D01*
X0070300Y0035800D01*
X0064300Y0035800D01*
X0059150Y0035778D02*
X0035393Y0035778D01*
X0034686Y0037376D02*
X0059150Y0037376D01*
X0059150Y0038975D02*
X0048555Y0038975D01*
X0049001Y0034179D02*
X0059150Y0034179D01*
X0059241Y0032581D02*
X0049979Y0032581D01*
X0051578Y0030982D02*
X0069908Y0030982D01*
X0071507Y0029384D02*
X0053176Y0029384D01*
X0054775Y0027785D02*
X0073105Y0027785D01*
X0074704Y0026187D02*
X0056373Y0026187D01*
X0056800Y0021800D02*
X0101800Y0021800D01*
X0104300Y0024300D01*
X0113060Y0024300D01*
X0108501Y0021391D02*
X0105351Y0021391D01*
X0103752Y0019793D02*
X0109227Y0019793D01*
X0102227Y0026187D02*
X0100146Y0026187D01*
X0098050Y0028050D02*
X0076800Y0028050D01*
X0070550Y0034300D01*
X0070550Y0035550D01*
X0076800Y0046800D02*
X0083050Y0040550D01*
X0084300Y0040550D01*
X0086800Y0038050D01*
X0093060Y0038050D01*
X0100540Y0038050D02*
X0105550Y0038050D01*
X0106800Y0039300D01*
X0128060Y0039300D01*
X0129300Y0038060D01*
X0129300Y0030540D01*
X0134253Y0035778D02*
X0138234Y0035778D01*
X0144300Y0039300D02*
X0130540Y0039300D01*
X0129300Y0038060D01*
X0124777Y0042100D02*
X0106243Y0042100D01*
X0105214Y0041674D01*
X0105099Y0041559D01*
X0105099Y0057041D01*
X0105214Y0056926D01*
X0106243Y0056500D01*
X0124777Y0056500D01*
X0124670Y0056314D01*
X0124547Y0055856D01*
X0124547Y0053539D01*
X0128820Y0053539D01*
X0128820Y0052580D01*
X0124547Y0052580D01*
X0124547Y0050264D01*
X0124670Y0049806D01*
X0124907Y0049396D01*
X0125002Y0049300D01*
X0124907Y0049204D01*
X0124670Y0048794D01*
X0124547Y0048336D01*
X0124547Y0046020D01*
X0128820Y0046020D01*
X0128820Y0045061D01*
X0124547Y0045061D01*
X0124547Y0042744D01*
X0124670Y0042286D01*
X0124777Y0042100D01*
X0124736Y0042172D02*
X0105099Y0042172D01*
X0105099Y0043770D02*
X0124547Y0043770D01*
X0124547Y0046967D02*
X0105099Y0046967D01*
X0105099Y0048566D02*
X0124609Y0048566D01*
X0124574Y0050164D02*
X0105099Y0050164D01*
X0105099Y0051763D02*
X0124547Y0051763D01*
X0128820Y0051763D02*
X0129780Y0051763D01*
X0129780Y0052580D02*
X0129780Y0046020D01*
X0128820Y0046020D01*
X0128820Y0049899D01*
X0128820Y0052580D01*
X0129780Y0052580D01*
X0129780Y0053361D02*
X0139338Y0053361D01*
X0139435Y0054960D02*
X0134053Y0054960D01*
X0128820Y0053361D02*
X0105099Y0053361D01*
X0105099Y0054960D02*
X0124547Y0054960D01*
X0128060Y0059300D02*
X0106800Y0059300D01*
X0105550Y0060550D01*
X0100540Y0060550D01*
X0100540Y0053050D01*
X0105099Y0056558D02*
X0106102Y0056558D01*
X0093060Y0053050D02*
X0093060Y0049300D01*
X0093060Y0048050D01*
X0093060Y0045550D01*
X0093060Y0049300D02*
X0084300Y0049300D01*
X0076800Y0046800D02*
X0076800Y0051800D01*
X0085550Y0060550D01*
X0093060Y0060550D01*
X0106800Y0070550D02*
X0075550Y0070550D01*
X0064550Y0070550D01*
X0064300Y0070300D01*
X0059150Y0070945D02*
X0054115Y0070945D01*
X0055713Y0069346D02*
X0059150Y0069346D01*
X0059150Y0067748D02*
X0057312Y0067748D01*
X0059150Y0072543D02*
X0052516Y0072543D01*
X0050918Y0074142D02*
X0059864Y0074142D01*
X0068736Y0074142D02*
X0074333Y0074142D01*
X0076767Y0074142D02*
X0106432Y0074142D01*
X0108031Y0075740D02*
X0035431Y0075740D01*
X0049053Y0048566D02*
X0054719Y0048566D01*
X0057673Y0046967D02*
X0048746Y0046967D01*
X0049253Y0045369D02*
X0059150Y0045369D01*
X0040045Y0038975D02*
X0036542Y0038975D01*
X0043040Y0031800D02*
X0029300Y0031800D01*
X0043040Y0031800D02*
X0044300Y0030540D01*
X0048060Y0030540D01*
X0056800Y0021800D01*
X0098050Y0028050D02*
X0100550Y0030550D01*
X0106800Y0030550D01*
X0108050Y0031800D01*
X0113060Y0031800D01*
X0108501Y0027785D02*
X0107442Y0027785D01*
X0120540Y0024300D02*
X0121780Y0023060D01*
X0129300Y0023060D01*
X0120540Y0024300D02*
X0120540Y0031800D01*
X0133864Y0042172D02*
X0137584Y0042172D01*
X0139749Y0043770D02*
X0134053Y0043770D01*
X0129780Y0045369D02*
X0139085Y0045369D01*
X0139089Y0045366D02*
X0139734Y0045037D01*
X0140423Y0044813D01*
X0141138Y0044700D01*
X0144200Y0044700D01*
X0144200Y0049200D01*
X0136900Y0049200D01*
X0136900Y0048938D01*
X0137013Y0048223D01*
X0137237Y0047534D01*
X0137566Y0046889D01*
X0137991Y0046303D01*
X0138503Y0045791D01*
X0139089Y0045366D01*
X0137526Y0046967D02*
X0134053Y0046967D01*
X0133991Y0048566D02*
X0136959Y0048566D01*
X0136980Y0050164D02*
X0134026Y0050164D01*
X0134053Y0051763D02*
X0137603Y0051763D01*
X0144200Y0051763D02*
X0144400Y0051763D01*
X0144400Y0050164D02*
X0144200Y0050164D01*
X0144200Y0048566D02*
X0144400Y0048566D01*
X0144400Y0046967D02*
X0144200Y0046967D01*
X0144200Y0045369D02*
X0144400Y0045369D01*
X0144400Y0053361D02*
X0144200Y0053361D01*
X0144300Y0059300D02*
X0130540Y0059300D01*
X0129300Y0060540D01*
X0128060Y0059300D01*
X0129300Y0060540D02*
X0129300Y0068060D01*
X0134253Y0062952D02*
X0138364Y0062952D01*
X0129780Y0050164D02*
X0128820Y0050164D01*
X0128820Y0048566D02*
X0129780Y0048566D01*
X0129780Y0046967D02*
X0128820Y0046967D01*
X0128820Y0045369D02*
X0105099Y0045369D01*
X0100540Y0045550D02*
X0100540Y0038050D01*
X0106800Y0070550D02*
X0110550Y0074300D01*
X0113060Y0074300D01*
X0116763Y0078937D02*
X0116837Y0078937D01*
X0124243Y0078937D02*
X0124357Y0078937D01*
D17*
X0139300Y0083050D03*
X0145550Y0083050D03*
X0151800Y0083050D03*
X0151800Y0076800D03*
X0145550Y0076800D03*
X0151800Y0070550D03*
X0121800Y0053050D03*
X0115550Y0053050D03*
X0109300Y0053050D03*
X0109300Y0045550D03*
X0115550Y0045550D03*
X0121800Y0045550D03*
X0151800Y0031800D03*
X0151800Y0025550D03*
X0145550Y0025550D03*
X0145550Y0019300D03*
X0151800Y0019300D03*
X0139300Y0019300D03*
X0058050Y0030550D03*
X0044300Y0036800D03*
X0056800Y0051800D03*
X0048050Y0058050D03*
X0041800Y0058050D03*
X0041800Y0064300D03*
X0048050Y0064300D03*
X0075550Y0070550D03*
X0081800Y0083050D03*
X0088050Y0083050D03*
X0094300Y0083050D03*
X0034300Y0083050D03*
X0028050Y0083050D03*
X0021800Y0083050D03*
M02*
