G75*
%MOIN*%
%OFA0B0*%
%FSLAX25Y25*%
%IPPOS*%
%LPD*%
%AMOC8*
5,1,8,0,0,1.08239X$1,22.5*
%
%ADD10C,0.01100*%
%ADD11C,0.00800*%
D10*
X0061237Y0027350D02*
X0065174Y0027350D01*
X0063205Y0027350D02*
X0063205Y0033255D01*
X0065174Y0031287D01*
X0067593Y0031287D02*
X0068577Y0031287D01*
X0070545Y0029318D01*
X0070545Y0027350D02*
X0070545Y0031287D01*
X0079499Y0032271D02*
X0079499Y0028334D01*
X0080484Y0027350D01*
X0082452Y0027350D01*
X0083436Y0028334D01*
X0083436Y0032271D01*
X0082452Y0033255D01*
X0080484Y0033255D01*
X0079499Y0032271D01*
X0085945Y0033255D02*
X0089882Y0033255D01*
X0089882Y0027350D01*
X0085945Y0027350D01*
X0087913Y0030303D02*
X0089882Y0030303D01*
X0092390Y0030303D02*
X0093374Y0029318D01*
X0096327Y0029318D01*
X0094359Y0029318D02*
X0092390Y0027350D01*
X0096327Y0027350D02*
X0096327Y0033255D01*
X0093374Y0033255D01*
X0092390Y0032271D01*
X0092390Y0030303D01*
X0098836Y0033255D02*
X0102773Y0033255D01*
X0102773Y0027350D01*
X0098836Y0027350D01*
X0100804Y0030303D02*
X0102773Y0030303D01*
X0105281Y0033255D02*
X0109218Y0033255D01*
X0107250Y0033255D02*
X0107250Y0027350D01*
X0111727Y0028334D02*
X0111727Y0029318D01*
X0112711Y0030303D01*
X0114679Y0030303D01*
X0115664Y0031287D01*
X0115664Y0032271D01*
X0114679Y0033255D01*
X0112711Y0033255D01*
X0111727Y0032271D01*
X0111727Y0028334D02*
X0112711Y0027350D01*
X0114679Y0027350D01*
X0115664Y0028334D01*
X0124618Y0032271D02*
X0124618Y0033255D01*
X0124618Y0032271D02*
X0126586Y0030303D01*
X0126586Y0027350D01*
X0126586Y0030303D02*
X0128555Y0032271D01*
X0128555Y0033255D01*
X0131063Y0031287D02*
X0131063Y0027350D01*
X0135000Y0027350D02*
X0135000Y0031287D01*
X0133032Y0033255D01*
X0131063Y0031287D01*
X0131063Y0030303D02*
X0135000Y0030303D01*
D11*
X0038140Y0023203D02*
X0038140Y0020401D01*
X0038840Y0019700D01*
X0040942Y0019700D01*
X0040942Y0023904D01*
X0038840Y0023904D01*
X0038140Y0023203D01*
X0042744Y0023904D02*
X0042744Y0019700D01*
X0045546Y0023904D01*
X0045546Y0019700D01*
X0047348Y0020401D02*
X0047348Y0021802D01*
X0048749Y0021802D01*
X0050150Y0023203D02*
X0050150Y0020401D01*
X0049449Y0019700D01*
X0048048Y0019700D01*
X0047348Y0020401D01*
X0047348Y0023203D02*
X0048048Y0023904D01*
X0049449Y0023904D01*
X0050150Y0023203D01*
X0041400Y0029700D02*
X0041400Y0032502D01*
X0039999Y0033904D01*
X0038598Y0032502D01*
X0038598Y0029700D01*
X0038598Y0031802D02*
X0041400Y0031802D01*
X0041400Y0039700D02*
X0039298Y0039700D01*
X0038598Y0040401D01*
X0038598Y0041101D01*
X0039298Y0041802D01*
X0041400Y0041802D01*
X0039298Y0041802D02*
X0038598Y0042502D01*
X0038598Y0043203D01*
X0039298Y0043904D01*
X0041400Y0043904D01*
X0041400Y0039700D01*
X0066890Y0039151D02*
X0067590Y0038450D01*
X0068992Y0038450D01*
X0069692Y0039151D01*
X0071494Y0039151D02*
X0071494Y0039851D01*
X0072194Y0040552D01*
X0072895Y0040552D01*
X0072194Y0040552D02*
X0071494Y0041252D01*
X0071494Y0041953D01*
X0072194Y0042654D01*
X0073595Y0042654D01*
X0074296Y0041953D01*
X0076098Y0042654D02*
X0076098Y0039151D01*
X0076798Y0038450D01*
X0078199Y0038450D01*
X0078900Y0039151D01*
X0078900Y0042654D01*
X0078199Y0047200D02*
X0076798Y0047200D01*
X0076098Y0047901D01*
X0076098Y0051404D01*
X0074296Y0050703D02*
X0073595Y0051404D01*
X0072194Y0051404D01*
X0071494Y0050703D01*
X0071494Y0050002D01*
X0072194Y0049302D01*
X0071494Y0048601D01*
X0071494Y0047901D01*
X0072194Y0047200D01*
X0073595Y0047200D01*
X0074296Y0047901D01*
X0072895Y0049302D02*
X0072194Y0049302D01*
X0069692Y0049302D02*
X0066890Y0049302D01*
X0067590Y0047200D02*
X0067590Y0051404D01*
X0069692Y0049302D01*
X0078199Y0047200D02*
X0078900Y0047901D01*
X0078900Y0051404D01*
X0069692Y0042654D02*
X0066890Y0042654D01*
X0067590Y0041252D02*
X0066890Y0040552D01*
X0066890Y0039151D01*
X0067590Y0041252D02*
X0068291Y0041252D01*
X0069692Y0040552D01*
X0069692Y0042654D01*
X0071494Y0039151D02*
X0072194Y0038450D01*
X0073595Y0038450D01*
X0074296Y0039151D01*
X0074031Y0022654D02*
X0074031Y0018450D01*
X0076133Y0018450D01*
X0076834Y0019151D01*
X0076834Y0020552D01*
X0076133Y0021252D01*
X0074031Y0021252D01*
X0072230Y0020552D02*
X0072230Y0019151D01*
X0071529Y0018450D01*
X0070128Y0018450D01*
X0069427Y0019151D01*
X0069427Y0020552D01*
X0070128Y0021252D01*
X0071529Y0021252D01*
X0072230Y0020552D01*
X0078635Y0020552D02*
X0078635Y0018450D01*
X0081438Y0018450D02*
X0081438Y0021252D01*
X0079336Y0021252D01*
X0078635Y0020552D01*
X0083239Y0020552D02*
X0083239Y0019851D01*
X0086041Y0019851D01*
X0086041Y0019151D02*
X0086041Y0020552D01*
X0085341Y0021252D01*
X0083940Y0021252D01*
X0083239Y0020552D01*
X0083940Y0018450D02*
X0085341Y0018450D01*
X0086041Y0019151D01*
X0088544Y0019151D02*
X0089244Y0018450D01*
X0089945Y0018450D01*
X0090645Y0019151D01*
X0088544Y0019151D02*
X0088544Y0022654D01*
X0089244Y0022654D02*
X0087843Y0022654D01*
X0097051Y0021252D02*
X0097051Y0017749D01*
X0097751Y0017049D01*
X0098452Y0017049D01*
X0099153Y0018450D02*
X0097051Y0018450D01*
X0099153Y0018450D02*
X0099853Y0019151D01*
X0099853Y0021252D01*
X0101655Y0020552D02*
X0102355Y0021252D01*
X0104457Y0021252D01*
X0104457Y0022654D02*
X0104457Y0018450D01*
X0102355Y0018450D01*
X0101655Y0019151D01*
X0101655Y0020552D01*
X0110863Y0020552D02*
X0110863Y0018450D01*
X0113665Y0018450D02*
X0113665Y0021252D01*
X0111563Y0021252D01*
X0110863Y0020552D01*
X0115467Y0021252D02*
X0115467Y0017749D01*
X0116167Y0017049D01*
X0116868Y0017049D01*
X0117568Y0018450D02*
X0115467Y0018450D01*
X0117568Y0018450D02*
X0118269Y0019151D01*
X0118269Y0020552D01*
X0117568Y0021252D01*
X0115467Y0021252D01*
X0120638Y0021252D02*
X0120638Y0018450D01*
X0121338Y0018450D02*
X0119937Y0018450D01*
X0123140Y0019151D02*
X0123840Y0019851D01*
X0125242Y0019851D01*
X0125942Y0020552D01*
X0125242Y0021252D01*
X0123140Y0021252D01*
X0121338Y0021252D02*
X0120638Y0021252D01*
X0120638Y0022654D02*
X0120638Y0023354D01*
X0123140Y0019151D02*
X0123840Y0018450D01*
X0125942Y0018450D01*
X0128444Y0018450D02*
X0129845Y0018450D01*
X0130546Y0019151D01*
X0130546Y0020552D01*
X0129845Y0021252D01*
X0128444Y0021252D01*
X0127744Y0020552D01*
X0127744Y0019851D01*
X0130546Y0019851D01*
X0132348Y0019151D02*
X0132348Y0021953D01*
X0133048Y0022654D01*
X0135150Y0022654D01*
X0135150Y0018450D01*
X0133048Y0018450D01*
X0132348Y0019151D01*
X0153450Y0038450D02*
X0153450Y0041252D01*
X0153450Y0038450D02*
X0157654Y0038450D01*
X0157654Y0058450D02*
X0153450Y0058450D01*
X0154851Y0058450D02*
X0154851Y0060552D01*
X0155552Y0061252D01*
X0156953Y0061252D01*
X0157654Y0060552D01*
X0157654Y0058450D01*
X0154851Y0059851D02*
X0153450Y0061252D01*
X0041400Y0070401D02*
X0040699Y0069700D01*
X0039298Y0069700D01*
X0038598Y0070401D01*
X0041400Y0070401D02*
X0041400Y0073203D01*
X0040699Y0073904D01*
X0039298Y0073904D01*
X0038598Y0073203D01*
M02*
