%
M48
M72
T01C0.0197
T02C0.0320
T03C0.0360
T04C0.0400
%
T01
X5805Y3055
X4430Y3680
X5680Y5180
X4805Y5805
X4180Y5805
X4180Y6430
X4805Y6430
X7555Y7055
X8180Y8305
X8805Y8305
X9430Y8305
X13930Y8305
X14555Y8305
X15180Y8305
X15180Y7680
X14555Y7680
X15180Y7055
X12180Y5305
X11555Y5305
X10930Y5305
X10930Y4555
X11555Y4555
X12180Y4555
X15180Y3180
X15180Y2555
X14555Y2555
X14555Y1930
X15180Y1930
X13930Y1930
X3430Y8305
X2805Y8305
X2180Y8305
T02
X8430Y4930
X8430Y4055
T03
X14430Y3930
X14430Y4930
X14430Y5930
T04
X2930Y2180
X2930Y3180
X2930Y4180
X2930Y5180
X2930Y6180
X2930Y7180
M30
