G75*
%MOIN*%
%OFA0B0*%
%FSLAX25Y25*%
%IPPOS*%
%LPD*%
%AMOC8*
5,1,8,0,0,1.08239X$1,22.5*
%
%ADD10C,0.05600*%
%ADD11C,0.06000*%
%ADD12OC8,0.06300*%
%ADD13C,0.03569*%
%ADD14C,0.01600*%
D10*
X0141500Y0039300D02*
X0147100Y0039300D01*
X0147100Y0049300D02*
X0141500Y0049300D01*
X0141500Y0059300D02*
X0147100Y0059300D01*
D11*
X0032300Y0061800D02*
X0026300Y0061800D01*
X0026300Y0051800D02*
X0032300Y0051800D01*
X0032300Y0041800D02*
X0026300Y0041800D01*
X0026300Y0031800D02*
X0032300Y0031800D01*
X0032300Y0021800D02*
X0026300Y0021800D01*
X0026300Y0071800D02*
X0032300Y0071800D01*
D12*
X0084300Y0049300D03*
X0084300Y0040550D03*
D13*
X0109300Y0045550D03*
X0115550Y0045550D03*
X0121800Y0045550D03*
X0121800Y0053050D03*
X0115550Y0053050D03*
X0109300Y0053050D03*
X0075550Y0070550D03*
X0081800Y0083050D03*
X0088050Y0083050D03*
X0094300Y0083050D03*
X0139300Y0083050D03*
X0145550Y0083050D03*
X0151800Y0083050D03*
X0151800Y0076800D03*
X0145550Y0076800D03*
X0151800Y0070550D03*
X0151800Y0031800D03*
X0151800Y0025550D03*
X0145550Y0025550D03*
X0145550Y0019300D03*
X0151800Y0019300D03*
X0139300Y0019300D03*
X0058050Y0030550D03*
X0044300Y0036800D03*
X0056800Y0051800D03*
X0048050Y0058050D03*
X0041800Y0058050D03*
X0041800Y0064300D03*
X0048050Y0064300D03*
X0034300Y0083050D03*
X0028050Y0083050D03*
X0021800Y0083050D03*
D14*
X0019100Y0085701D02*
X0019100Y0016600D01*
X0154421Y0016600D01*
X0154421Y0085701D01*
X0019100Y0085701D01*
X0019100Y0085332D02*
X0154421Y0085332D01*
X0154421Y0083733D02*
X0019100Y0083733D01*
X0019100Y0082134D02*
X0154421Y0082134D01*
X0154421Y0080536D02*
X0019100Y0080536D01*
X0019100Y0078937D02*
X0154421Y0078937D01*
X0154421Y0077339D02*
X0019100Y0077339D01*
X0019100Y0075740D02*
X0023169Y0075740D01*
X0023468Y0076039D02*
X0022061Y0074632D01*
X0021300Y0072795D01*
X0021300Y0070805D01*
X0022061Y0068968D01*
X0023468Y0067561D01*
X0025305Y0066800D01*
X0033295Y0066800D01*
X0035132Y0067561D01*
X0036539Y0068968D01*
X0037300Y0070805D01*
X0037300Y0072795D01*
X0036539Y0074632D01*
X0035132Y0076039D01*
X0033295Y0076800D01*
X0025305Y0076800D01*
X0023468Y0076039D01*
X0021858Y0074142D02*
X0019100Y0074142D01*
X0019100Y0072543D02*
X0021300Y0072543D01*
X0021300Y0070945D02*
X0019100Y0070945D01*
X0019100Y0069346D02*
X0021904Y0069346D01*
X0023281Y0067748D02*
X0019100Y0067748D01*
X0019100Y0066149D02*
X0023735Y0066149D01*
X0023468Y0066039D02*
X0022061Y0064632D01*
X0021300Y0062795D01*
X0021300Y0060805D01*
X0022061Y0058968D01*
X0023468Y0057561D01*
X0025305Y0056800D01*
X0033295Y0056800D01*
X0035132Y0057561D01*
X0036539Y0058968D01*
X0037300Y0060805D01*
X0037300Y0062795D01*
X0036539Y0064632D01*
X0035132Y0066039D01*
X0033295Y0066800D01*
X0025305Y0066800D01*
X0023468Y0066039D01*
X0022027Y0064551D02*
X0019100Y0064551D01*
X0019100Y0062952D02*
X0021365Y0062952D01*
X0021300Y0061354D02*
X0019100Y0061354D01*
X0019100Y0059755D02*
X0021735Y0059755D01*
X0022872Y0058157D02*
X0019100Y0058157D01*
X0019100Y0056558D02*
X0024722Y0056558D01*
X0025305Y0056800D02*
X0023468Y0056039D01*
X0022061Y0054632D01*
X0021300Y0052795D01*
X0021300Y0050805D01*
X0022061Y0048968D01*
X0023468Y0047561D01*
X0025305Y0046800D01*
X0033295Y0046800D01*
X0035132Y0047561D01*
X0036539Y0048968D01*
X0037300Y0050805D01*
X0037300Y0052795D01*
X0036539Y0054632D01*
X0035132Y0056039D01*
X0033295Y0056800D01*
X0025305Y0056800D01*
X0022389Y0054960D02*
X0019100Y0054960D01*
X0019100Y0053361D02*
X0021535Y0053361D01*
X0021300Y0051763D02*
X0019100Y0051763D01*
X0019100Y0050164D02*
X0021566Y0050164D01*
X0022463Y0048566D02*
X0019100Y0048566D01*
X0019100Y0046967D02*
X0024902Y0046967D01*
X0025305Y0046800D02*
X0023468Y0046039D01*
X0022061Y0044632D01*
X0021300Y0042795D01*
X0021300Y0040805D01*
X0022061Y0038968D01*
X0023468Y0037561D01*
X0025305Y0036800D01*
X0033295Y0036800D01*
X0035132Y0037561D01*
X0036539Y0038968D01*
X0037300Y0040805D01*
X0037300Y0042795D01*
X0036539Y0044632D01*
X0035132Y0046039D01*
X0033295Y0046800D01*
X0025305Y0046800D01*
X0022798Y0045369D02*
X0019100Y0045369D01*
X0019100Y0043770D02*
X0021704Y0043770D01*
X0021300Y0042172D02*
X0019100Y0042172D01*
X0019100Y0040573D02*
X0021396Y0040573D01*
X0022058Y0038975D02*
X0019100Y0038975D01*
X0019100Y0037376D02*
X0023914Y0037376D01*
X0023468Y0036039D02*
X0025305Y0036800D01*
X0033295Y0036800D01*
X0035132Y0036039D01*
X0036539Y0034632D01*
X0037300Y0032795D01*
X0037300Y0030805D01*
X0036539Y0028968D01*
X0035132Y0027561D01*
X0033295Y0026800D01*
X0025305Y0026800D01*
X0023468Y0027561D01*
X0022061Y0028968D01*
X0021300Y0030805D01*
X0021300Y0032795D01*
X0022061Y0034632D01*
X0023468Y0036039D01*
X0023207Y0035778D02*
X0019100Y0035778D01*
X0019100Y0034179D02*
X0021874Y0034179D01*
X0021300Y0032581D02*
X0019100Y0032581D01*
X0019100Y0030982D02*
X0021300Y0030982D01*
X0021889Y0029384D02*
X0019100Y0029384D01*
X0019100Y0027785D02*
X0023244Y0027785D01*
X0024336Y0026187D02*
X0019100Y0026187D01*
X0019100Y0024588D02*
X0022393Y0024588D01*
X0022195Y0024316D02*
X0021852Y0023643D01*
X0021618Y0022924D01*
X0021500Y0022178D01*
X0021500Y0022000D01*
X0029100Y0022000D01*
X0029100Y0026600D01*
X0025922Y0026600D01*
X0025176Y0026482D01*
X0024457Y0026248D01*
X0023784Y0025905D01*
X0023173Y0025461D01*
X0022639Y0024927D01*
X0022195Y0024316D01*
X0021640Y0022990D02*
X0019100Y0022990D01*
X0019100Y0021391D02*
X0021505Y0021391D01*
X0021500Y0021422D02*
X0021618Y0020676D01*
X0021852Y0019957D01*
X0022195Y0019284D01*
X0022639Y0018673D01*
X0023173Y0018139D01*
X0023784Y0017695D01*
X0024457Y0017352D01*
X0025176Y0017118D01*
X0025922Y0017000D01*
X0029100Y0017000D01*
X0029100Y0021600D01*
X0029500Y0021600D01*
X0029500Y0022000D01*
X0029100Y0022000D01*
X0029100Y0021600D01*
X0021500Y0021600D01*
X0021500Y0021422D01*
X0021936Y0019793D02*
X0019100Y0019793D01*
X0019100Y0018194D02*
X0023118Y0018194D01*
X0029100Y0018194D02*
X0029500Y0018194D01*
X0029500Y0017000D02*
X0032678Y0017000D01*
X0033424Y0017118D01*
X0034143Y0017352D01*
X0034816Y0017695D01*
X0035427Y0018139D01*
X0035961Y0018673D01*
X0036405Y0019284D01*
X0036748Y0019957D01*
X0036982Y0020676D01*
X0037100Y0021422D01*
X0037100Y0021600D01*
X0029500Y0021600D01*
X0029500Y0017000D01*
X0029500Y0019793D02*
X0029100Y0019793D01*
X0029100Y0021391D02*
X0029500Y0021391D01*
X0029500Y0022000D02*
X0037100Y0022000D01*
X0037100Y0022178D01*
X0036982Y0022924D01*
X0036748Y0023643D01*
X0036405Y0024316D01*
X0035961Y0024927D01*
X0035427Y0025461D01*
X0034816Y0025905D01*
X0034143Y0026248D01*
X0033424Y0026482D01*
X0032678Y0026600D01*
X0029500Y0026600D01*
X0029500Y0022000D01*
X0029500Y0022990D02*
X0029100Y0022990D01*
X0029100Y0024588D02*
X0029500Y0024588D01*
X0029500Y0026187D02*
X0029100Y0026187D01*
X0034264Y0026187D02*
X0154421Y0026187D01*
X0154421Y0027785D02*
X0035356Y0027785D01*
X0036711Y0029384D02*
X0154421Y0029384D01*
X0154421Y0030982D02*
X0037300Y0030982D01*
X0037300Y0032581D02*
X0154421Y0032581D01*
X0154421Y0034179D02*
X0036726Y0034179D01*
X0035393Y0035778D02*
X0081789Y0035778D01*
X0082167Y0035400D02*
X0086433Y0035400D01*
X0089450Y0038417D01*
X0089450Y0042683D01*
X0087208Y0044925D01*
X0089450Y0047167D01*
X0089450Y0051433D01*
X0086433Y0054450D01*
X0082167Y0054450D01*
X0079150Y0051433D01*
X0079150Y0047167D01*
X0081392Y0044925D01*
X0079150Y0042683D01*
X0079150Y0038417D01*
X0082167Y0035400D01*
X0080191Y0037376D02*
X0034686Y0037376D01*
X0036542Y0038975D02*
X0079150Y0038975D01*
X0079150Y0040573D02*
X0037204Y0040573D01*
X0037300Y0042172D02*
X0079150Y0042172D01*
X0080237Y0043770D02*
X0036896Y0043770D01*
X0035802Y0045369D02*
X0080948Y0045369D01*
X0079350Y0046967D02*
X0033698Y0046967D01*
X0036137Y0048566D02*
X0054719Y0048566D01*
X0054656Y0048592D02*
X0056047Y0048016D01*
X0057553Y0048016D01*
X0058944Y0048592D01*
X0060008Y0049656D01*
X0060584Y0051047D01*
X0060584Y0052553D01*
X0060008Y0053944D01*
X0059600Y0054352D01*
X0059600Y0055640D01*
X0071710Y0067750D01*
X0072998Y0067750D01*
X0073406Y0067342D01*
X0074797Y0066766D01*
X0076303Y0066766D01*
X0077694Y0067342D01*
X0078758Y0068406D01*
X0079334Y0069797D01*
X0079334Y0071303D01*
X0078758Y0072694D01*
X0077694Y0073758D01*
X0076303Y0074334D01*
X0074797Y0074334D01*
X0073406Y0073758D01*
X0072998Y0073350D01*
X0069993Y0073350D01*
X0068964Y0072924D01*
X0068176Y0072136D01*
X0054426Y0058386D01*
X0054000Y0057357D01*
X0054000Y0054352D01*
X0053592Y0053944D01*
X0053016Y0052553D01*
X0053016Y0051047D01*
X0053592Y0049656D01*
X0054656Y0048592D01*
X0053381Y0050164D02*
X0037034Y0050164D01*
X0037300Y0051763D02*
X0053016Y0051763D01*
X0053351Y0053361D02*
X0037065Y0053361D01*
X0036211Y0054960D02*
X0054000Y0054960D01*
X0054000Y0056558D02*
X0033878Y0056558D01*
X0035728Y0058157D02*
X0054331Y0058157D01*
X0055796Y0059755D02*
X0036865Y0059755D01*
X0037300Y0061354D02*
X0057394Y0061354D01*
X0058993Y0062952D02*
X0037235Y0062952D01*
X0036573Y0064551D02*
X0060591Y0064551D01*
X0062190Y0066149D02*
X0034865Y0066149D01*
X0035319Y0067748D02*
X0063788Y0067748D01*
X0065387Y0069346D02*
X0036696Y0069346D01*
X0037300Y0070945D02*
X0066985Y0070945D01*
X0068584Y0072543D02*
X0037300Y0072543D01*
X0036742Y0074142D02*
X0074333Y0074142D01*
X0076767Y0074142D02*
X0154421Y0074142D01*
X0154421Y0072543D02*
X0078820Y0072543D01*
X0079334Y0070945D02*
X0154421Y0070945D01*
X0154421Y0069346D02*
X0079147Y0069346D01*
X0078100Y0067748D02*
X0154421Y0067748D01*
X0154421Y0066149D02*
X0070109Y0066149D01*
X0068511Y0064551D02*
X0154421Y0064551D01*
X0154421Y0062952D02*
X0150236Y0062952D01*
X0149819Y0063369D02*
X0148055Y0064100D01*
X0140545Y0064100D01*
X0138781Y0063369D01*
X0137431Y0062019D01*
X0136700Y0060255D01*
X0136700Y0058345D01*
X0137431Y0056581D01*
X0138781Y0055231D01*
X0140545Y0054500D01*
X0148055Y0054500D01*
X0149819Y0055231D01*
X0151169Y0056581D01*
X0151900Y0058345D01*
X0151900Y0060255D01*
X0151169Y0062019D01*
X0149819Y0063369D01*
X0151445Y0061354D02*
X0154421Y0061354D01*
X0154421Y0059755D02*
X0151900Y0059755D01*
X0151822Y0058157D02*
X0154421Y0058157D01*
X0154421Y0056558D02*
X0151147Y0056558D01*
X0149165Y0054960D02*
X0154421Y0054960D01*
X0154421Y0053361D02*
X0149262Y0053361D01*
X0149511Y0053234D02*
X0148866Y0053563D01*
X0148177Y0053787D01*
X0147462Y0053900D01*
X0144400Y0053900D01*
X0144400Y0049400D01*
X0144200Y0049400D01*
X0144200Y0053900D01*
X0141138Y0053900D01*
X0140423Y0053787D01*
X0139734Y0053563D01*
X0139089Y0053234D01*
X0138503Y0052809D01*
X0137991Y0052297D01*
X0137566Y0051711D01*
X0137237Y0051066D01*
X0137013Y0050377D01*
X0136900Y0049662D01*
X0136900Y0049400D01*
X0144200Y0049400D01*
X0144200Y0049200D01*
X0144400Y0049200D01*
X0144400Y0049400D01*
X0151700Y0049400D01*
X0151700Y0049662D01*
X0151587Y0050377D01*
X0151363Y0051066D01*
X0151034Y0051711D01*
X0150609Y0052297D01*
X0150097Y0052809D01*
X0149511Y0053234D01*
X0150997Y0051763D02*
X0154421Y0051763D01*
X0154421Y0050164D02*
X0151620Y0050164D01*
X0151700Y0049200D02*
X0144400Y0049200D01*
X0144400Y0044700D01*
X0147462Y0044700D01*
X0148177Y0044813D01*
X0148866Y0045037D01*
X0149511Y0045366D01*
X0150097Y0045791D01*
X0150609Y0046303D01*
X0151034Y0046889D01*
X0151363Y0047534D01*
X0151587Y0048223D01*
X0151700Y0048938D01*
X0151700Y0049200D01*
X0151641Y0048566D02*
X0154421Y0048566D01*
X0154421Y0046967D02*
X0151074Y0046967D01*
X0149515Y0045369D02*
X0154421Y0045369D01*
X0154421Y0043770D02*
X0148851Y0043770D01*
X0148055Y0044100D02*
X0149819Y0043369D01*
X0151169Y0042019D01*
X0151900Y0040255D01*
X0151900Y0038345D01*
X0151169Y0036581D01*
X0149819Y0035231D01*
X0148055Y0034500D01*
X0140545Y0034500D01*
X0138781Y0035231D01*
X0137431Y0036581D01*
X0136700Y0038345D01*
X0136700Y0040255D01*
X0137431Y0042019D01*
X0138781Y0043369D01*
X0140545Y0044100D01*
X0148055Y0044100D01*
X0151016Y0042172D02*
X0154421Y0042172D01*
X0154421Y0040573D02*
X0151768Y0040573D01*
X0151900Y0038975D02*
X0154421Y0038975D01*
X0154421Y0037376D02*
X0151499Y0037376D01*
X0150366Y0035778D02*
X0154421Y0035778D01*
X0139749Y0043770D02*
X0088363Y0043770D01*
X0087652Y0045369D02*
X0139085Y0045369D01*
X0139089Y0045366D02*
X0139734Y0045037D01*
X0140423Y0044813D01*
X0141138Y0044700D01*
X0144200Y0044700D01*
X0144200Y0049200D01*
X0136900Y0049200D01*
X0136900Y0048938D01*
X0137013Y0048223D01*
X0137237Y0047534D01*
X0137566Y0046889D01*
X0137991Y0046303D01*
X0138503Y0045791D01*
X0139089Y0045366D01*
X0137526Y0046967D02*
X0089250Y0046967D01*
X0089450Y0048566D02*
X0136959Y0048566D01*
X0136980Y0050164D02*
X0089450Y0050164D01*
X0089120Y0051763D02*
X0137603Y0051763D01*
X0139338Y0053361D02*
X0087522Y0053361D01*
X0081078Y0053361D02*
X0060249Y0053361D01*
X0060584Y0051763D02*
X0079480Y0051763D01*
X0079150Y0050164D02*
X0060218Y0050164D01*
X0058881Y0048566D02*
X0079150Y0048566D01*
X0089450Y0042172D02*
X0137584Y0042172D01*
X0136832Y0040573D02*
X0089450Y0040573D01*
X0089450Y0038975D02*
X0136700Y0038975D01*
X0137101Y0037376D02*
X0088409Y0037376D01*
X0086811Y0035778D02*
X0138234Y0035778D01*
X0144200Y0045369D02*
X0144400Y0045369D01*
X0144400Y0046967D02*
X0144200Y0046967D01*
X0144200Y0048566D02*
X0144400Y0048566D01*
X0144400Y0050164D02*
X0144200Y0050164D01*
X0144200Y0051763D02*
X0144400Y0051763D01*
X0144400Y0053361D02*
X0144200Y0053361D01*
X0139435Y0054960D02*
X0059600Y0054960D01*
X0060518Y0056558D02*
X0137453Y0056558D01*
X0136778Y0058157D02*
X0062117Y0058157D01*
X0063715Y0059755D02*
X0136700Y0059755D01*
X0137155Y0061354D02*
X0065314Y0061354D01*
X0066912Y0062952D02*
X0138364Y0062952D01*
X0154421Y0075740D02*
X0035431Y0075740D01*
X0056800Y0056800D02*
X0070550Y0070550D01*
X0075550Y0070550D01*
X0073000Y0067748D02*
X0071708Y0067748D01*
X0056800Y0056800D02*
X0056800Y0051800D01*
X0036207Y0024588D02*
X0154421Y0024588D01*
X0154421Y0022990D02*
X0036960Y0022990D01*
X0037095Y0021391D02*
X0154421Y0021391D01*
X0154421Y0019793D02*
X0036664Y0019793D01*
X0035482Y0018194D02*
X0154421Y0018194D01*
M02*
